<svg width="1440" height="786" viewBox="0 0 1440 786" fill="none" xmlns="http://www.w3.org/2000/svg">
<g clip-path="url(#clip0_239_2)">
<rect width="1440" height="786" fill="white"/>
<rect x="-7" y="118.5" width="1494.75" height="195" stroke="#172FF2" stroke-width="3.75"/>
<rect x="-7" y="168.355" width="1494.75" height="145.5" stroke="#172FF2" stroke-width="3.75"/>
<circle cx="1041.04" cy="203.857" r="37.5" fill="#D1D5FC"/>
<circle cx="1171.75" cy="280.09" r="37.5" fill="#D1D5FC"/>
<rect x="-7" y="422.5" width="1494.75" height="223.5" stroke="#172FF2" stroke-width="3.75"/>
<rect x="-7" y="480.25" width="1494.75" height="165.75" stroke="#172FF2" stroke-width="3.75"/>
<path d="M639.75 219L641.146 229.218C642.666 240.339 651.411 249.084 662.532 250.604L672.75 252L662.532 253.396C651.411 254.916 642.666 263.661 641.146 274.782L639.75 285L638.354 274.782C636.834 263.661 628.089 254.916 616.968 253.396L606.75 252L616.968 250.604C628.089 249.084 636.834 240.339 638.354 229.218L639.75 219Z" fill="#172FF2"/>
<circle cx="712.478" cy="487.59" r="37.5" fill="#D1D5FC"/>
<circle cx="764.5" cy="633.5" r="37.5" fill="#D1D5FC"/>
<path d="M307 644.75C307 639.212 308.227 633.742 310.592 628.734C312.957 623.726 316.403 619.305 320.68 615.787C324.958 612.269 329.961 609.742 335.332 608.388C340.702 607.034 346.305 606.886 351.739 607.955L344.5 644.75L307 644.75Z" fill="#D1D5FC"/>
<path d="M323.845 622.475C321.933 622.475 320.515 623.712 320.515 625.782C320.515 627.762 321.865 628.887 323.845 628.887C325.713 628.887 327.198 627.492 327.198 625.782C327.198 623.937 325.713 622.475 323.845 622.475ZM322 635.975C321.078 635.975 320.155 635.818 319.255 635.48L319.795 633.95C320.493 634.197 321.19 634.31 321.865 634.31C324.903 634.31 327.175 631.902 327.468 628.46C326.59 629.765 325.24 630.417 323.44 630.417C320.47 630.417 318.805 628.572 318.805 625.985C318.805 622.88 320.785 620.9 323.845 620.9C326.995 620.9 329.245 623.217 329.245 627.042C329.245 632.802 326.208 635.975 322 635.975ZM337.741 620.63C339.631 620.63 341.184 622.182 341.184 624.05C341.184 625.94 339.631 627.492 337.741 627.492C335.874 627.492 334.299 625.94 334.299 624.05C334.299 622.182 335.874 620.63 337.741 620.63ZM339.024 622.79C337.899 621.71 335.941 622.497 335.941 624.05C335.829 626.39 339.654 626.39 339.541 624.05C339.541 623.577 339.361 623.15 339.024 622.79Z" fill="#172FF2"/>
<line x1="335.898" y1="708.193" x2="384.111" y2="401.459" stroke="#172FF2" stroke-width="3.75"/>
<line x1="364.398" y1="708.193" x2="412.611" y2="401.459" stroke="#172FF2" stroke-width="3.75"/>
<line x1="401.898" y1="708.193" x2="450.111" y2="401.459" stroke="#172FF2" stroke-width="3.75"/>
<line x1="431.148" y1="708.193" x2="479.361" y2="401.459" stroke="#172FF2" stroke-width="3.75"/>
<line x1="468.648" y1="708.193" x2="516.861" y2="401.459" stroke="#172FF2" stroke-width="3.75"/>
<line x1="497.148" y1="708.193" x2="545.361" y2="401.459" stroke="#172FF2" stroke-width="3.75"/>
</g>
<defs>
<clipPath id="clip0_239_2">
<rect width="1440" height="786" fill="white"/>
</clipPath>
</defs>
</svg>
