<svg width="600" height="73" viewBox="0 0 600 73" fill="none" xmlns="http://www.w3.org/2000/svg">
<mask id="path-1-inside-1_305_3142" fill="white">
<path fill-rule="evenodd" clip-rule="evenodd" d="M36.5 0C16.3416 0 0 16.3416 0 36.5C0 56.6584 16.3416 73 36.5 73H497.204H543.062H600L573.864 56.092C577.471 50.4316 579.562 43.7099 579.562 36.5C579.562 16.3416 563.22 0 543.062 0H36.5Z"/>
</mask>
<path d="M600 73V76.75H612.7L602.037 69.8514L600 73ZM573.864 56.092L570.701 54.0764L568.699 57.2174L571.827 59.2406L573.864 56.092ZM3.75 36.5C3.75 18.4127 18.4127 3.75 36.5 3.75V-3.75C14.2705 -3.75 -3.75 14.2705 -3.75 36.5H3.75ZM36.5 69.25C18.4127 69.25 3.75 54.5873 3.75 36.5H-3.75C-3.75 58.7295 14.2705 76.75 36.5 76.75V69.25ZM497.204 69.25H36.5V76.75H497.204V69.25ZM497.204 76.75H543.062V69.25H497.204V76.75ZM543.062 76.75H600V69.25H543.062V76.75ZM602.037 69.8514L575.9 52.9434L571.827 59.2406L597.963 76.1486L602.037 69.8514ZM575.812 36.5C575.812 42.9749 573.937 49.0003 570.701 54.0764L577.026 58.1076C581.006 51.863 583.312 44.445 583.312 36.5H575.812ZM543.062 3.75C561.149 3.75 575.812 18.4127 575.812 36.5H583.312C583.312 14.2705 565.291 -3.75 543.062 -3.75V3.75ZM36.5 3.75H543.062V-3.75H36.5V3.75Z" fill="#172FF2" mask="url(#path-1-inside-1_305_3142)"/>
</svg>
