<svg width="409" height="73" viewBox="0 0 409 73" fill="none" xmlns="http://www.w3.org/2000/svg">
<mask id="path-1-inside-1_305_3145" fill="white">
<path fill-rule="evenodd" clip-rule="evenodd" d="M36.5 0C16.3416 0 0 16.3416 0 36.5C0 56.6584 16.3416 73 36.5 73H320H347.914H409L378.721 56.084C382.326 50.4253 384.414 43.7066 384.414 36.5C384.414 16.3416 368.073 0 347.914 0H36.5Z"/>
</mask>
<path d="M409 73V76.75H423.401L410.829 69.7262L409 73ZM378.721 56.084L375.558 54.0692L373.423 57.4201L376.892 59.3578L378.721 56.084ZM3.75 36.5C3.75 18.4127 18.4127 3.75 36.5 3.75V-3.75C14.2705 -3.75 -3.75 14.2705 -3.75 36.5H3.75ZM36.5 69.25C18.4127 69.25 3.75 54.5873 3.75 36.5H-3.75C-3.75 58.7295 14.2706 76.75 36.5 76.75V69.25ZM320 69.25H36.5V76.75H320V69.25ZM320 76.75H347.914V69.25H320V76.75ZM347.914 76.75H409V69.25H347.914V76.75ZM410.829 69.7262L380.55 52.8103L376.892 59.3578L407.171 76.2738L410.829 69.7262ZM380.664 36.5C380.664 42.9718 378.791 48.9947 375.558 54.0692L381.884 58.0988C385.86 51.856 388.164 44.4413 388.164 36.5H380.664ZM347.914 3.75C366.001 3.75 380.664 18.4127 380.664 36.5H388.164C388.164 14.2705 370.144 -3.75 347.914 -3.75V3.75ZM36.5 3.75H347.914V-3.75H36.5V3.75Z" fill="#172FF2" mask="url(#path-1-inside-1_305_3145)"/>
</svg>
