<svg width="327" height="73" viewBox="0 0 327 73" fill="none" xmlns="http://www.w3.org/2000/svg">
<mask id="path-1-inside-1_307_3148" fill="white">
<path fill-rule="evenodd" clip-rule="evenodd" d="M36.5 0C16.3416 0 0 16.3416 0 36.5C0 56.6584 16.3416 73 36.5 73H224.57H263.678H327L295.166 54.9719C298.352 49.5534 300.178 43.24 300.178 36.5C300.178 16.3416 283.837 0 263.679 0H36.5Z"/>
</mask>
<path d="M327 73V76.75H341.232L328.848 69.7369L327 73ZM295.166 54.9719L291.933 53.0713L290.002 56.3568L293.318 58.2349L295.166 54.9719ZM3.75 36.5C3.75 18.4127 18.4127 3.75 36.5 3.75V-3.75C14.2705 -3.75 -3.75 14.2705 -3.75 36.5H3.75ZM36.5 69.25C18.4127 69.25 3.75 54.5873 3.75 36.5H-3.75C-3.75 58.7295 14.2705 76.75 36.5 76.75V69.25ZM224.57 69.25H36.5V76.75H224.57V69.25ZM224.57 76.75H263.678V69.25H224.57V76.75ZM263.678 76.75H327V69.25H263.678V76.75ZM328.848 69.7369L297.014 51.7088L293.318 58.2349L325.152 76.2631L328.848 69.7369ZM296.428 36.5C296.428 42.5537 294.789 48.2132 291.933 53.0713L298.399 56.8724C301.914 50.8935 303.928 43.9263 303.928 36.5H296.428ZM263.679 3.75C281.766 3.75 296.428 18.4127 296.428 36.5H303.928C303.928 14.2705 285.908 -3.75 263.679 -3.75V3.75ZM36.5 3.75H263.679V-3.75H36.5V3.75Z" fill="#172FF2" mask="url(#path-1-inside-1_307_3148)"/>
</svg>
