<svg width="1440" height="602" viewBox="0 0 1440 602" fill="none" xmlns="http://www.w3.org/2000/svg">
<path d="M834 87L835.396 97.2183C836.916 108.339 845.661 117.084 856.782 118.604L867 120L856.782 121.396C845.661 122.916 836.916 131.661 835.396 142.782L834 153L832.604 142.782C831.084 131.661 822.339 122.916 811.218 121.396L801 120L811.218 118.604C822.339 117.084 831.084 108.339 832.604 97.2183L834 87Z" fill="#172FF2"/>
<path d="M1197.75 321.75L1199.15 331.968C1200.67 343.089 1209.41 351.834 1220.53 353.354L1230.75 354.75L1220.53 356.146C1209.41 357.666 1200.67 366.411 1199.15 377.532L1197.75 387.75L1196.35 377.532C1194.83 366.411 1186.09 357.666 1174.97 356.146L1164.75 354.75L1174.97 353.354C1186.09 351.834 1194.83 343.089 1196.35 331.968L1197.75 321.75Z" fill="#172FF2"/>
<path d="M121.5 486.75L122.896 496.968C124.416 508.089 133.161 516.834 144.282 518.354L154.5 519.75L144.282 521.146C133.161 522.666 124.416 531.411 122.896 542.532L121.5 552.75L120.104 542.532C118.584 531.411 109.839 522.666 98.7183 521.146L88.5 519.75L98.7183 518.354C109.839 516.834 118.584 508.089 120.104 496.968L121.5 486.75Z" fill="#172FF2"/>
<path d="M149.439 298.772L149.665 298.178C141.192 307.998 130.466 312.553 117.51 311.845C105.496 311.189 95.7849 306.026 88.3764 296.358C80.968 286.69 77.693 273.998 78.5516 258.282C79.4101 242.566 84.0495 230.282 92.4657 221.503C100.883 212.699 111.099 208.625 123.113 209.281C135.948 209.982 146.018 215.674 153.395 226.359L153.417 225.948C153.376 221.823 153.467 217.511 153.712 213.014L170.093 213.909C169.366 224.564 168.421 240.978 167.211 263.125C165.911 286.917 165.087 303.337 164.715 312.363L148.141 311.457C148.358 307.492 148.782 303.271 149.439 298.772ZM146.118 235.54C140.891 228.464 134.248 224.707 126.215 224.268C118.181 223.829 111.145 226.839 105.202 233.305C99.2351 239.769 95.9571 248.393 95.3667 259.2C94.7763 270.008 97.0953 278.938 102.323 286.013C107.55 293.089 114.192 296.847 122.226 297.286C130.259 297.725 137.272 294.713 143.239 288.249C149.205 281.784 152.483 273.161 153.074 262.353C153.664 251.545 151.345 242.616 146.118 235.54Z" fill="#1D1D1B"/>
<path d="M331.487 271.148C332.076 279.626 330.256 286.549 326.052 291.914C321.823 297.281 315.973 300.236 308.477 300.757C303.03 301.135 298.279 300.033 294.271 297.423C290.263 294.813 287.558 291.433 286.18 287.281C278.292 297.854 267.719 303.588 254.511 304.506C245.111 305.159 237.402 303.316 231.435 298.997C225.443 294.68 222.194 288.692 221.662 281.035C221.13 273.378 223.43 266.397 228.594 260.893C233.758 255.388 241.172 251.256 250.841 248.546C257.012 246.733 267.61 244.492 282.632 241.798L282.12 234.43C281.656 227.739 279.07 222.943 274.34 220.043C269.609 217.144 264.123 215.923 257.857 216.358C251.59 216.794 246.264 218.571 242.289 221.663C238.314 224.755 236.486 228.426 236.78 232.653L236.808 233.064C236.971 233.319 237.091 233.651 237.192 234.057C237.293 234.462 237.345 234.871 237.374 235.282L222.258 239.415C221.438 235.637 221.03 233.602 221.012 233.336C220.423 224.857 223.648 217.594 230.687 211.547C237.727 205.499 246.837 202.075 258.021 201.298C269.205 200.521 279.221 202.811 286.455 208.279C293.689 213.747 297.637 221.41 298.32 231.242L301.679 279.602C301.822 281.655 302.592 283.325 303.987 284.588C305.385 285.874 307.095 286.435 309.144 286.293C312.132 286.085 314.366 284.425 315.771 281.293C317.202 278.184 317.736 274.02 317.376 268.827L331.511 271.146L331.487 271.148ZM238.478 278.022C238.754 281.984 240.447 285.094 243.535 287.355C246.647 289.615 250.565 290.581 255.337 290.249C261.339 289.832 266.929 288.036 272.11 284.86C277.29 281.685 281.505 277.509 284.707 272.359L283.453 254.314C268.586 257.143 257.867 259.733 251.323 262.105C247.046 263.64 243.785 265.857 241.516 268.757C239.247 271.658 238.228 274.763 238.454 278.024L238.478 278.022Z" fill="#1D1D1B"/>
<path d="M572.955 571.194C580.183 571.737 586.574 569.886 592.174 565.645C597.775 561.403 600.858 555.516 601.423 548.006L605.964 487.569L622.324 488.798C621.441 498.615 620.16 515.006 618.436 537.945C616.713 560.884 615.553 577.285 614.935 587.121L598.383 585.877C598.7 581.652 599.196 577.634 599.894 573.825C591.694 582.679 581.317 586.635 568.789 585.693C558.429 584.915 550.015 580.81 543.498 573.375C537.006 565.943 534.167 556.648 535.009 545.444L539.734 482.567L556.503 483.828L551.961 544.265C551.346 552.451 552.996 558.864 556.89 563.479C560.783 568.094 566.139 570.657 572.957 571.17L572.955 571.194Z" fill="#1D1D1B"/>
<path d="M472.492 537.534L437.936 458.931L430.644 555.931L408.681 565.586L369 475.323L383.266 469.052L417.081 545.97L425.114 450.655L447.077 441L486.758 531.263L472.492 537.534Z" fill="#1D1D1B"/>
<path d="M1075.12 542.092V601.658H1059.75C1059.89 591.803 1059.94 575.362 1059.94 552.358C1059.94 529.355 1059.87 512.913 1059.75 503.058H1075.12C1075.12 506.618 1075.04 509.281 1074.92 511.073C1079.97 504.366 1086.13 501 1093.36 501C1097.73 501 1101.67 502.259 1105.15 504.802C1108.63 507.344 1111.26 510.855 1113.05 515.383C1118.1 505.794 1125.15 501 1134.17 501C1140.45 501 1145.64 503.615 1149.75 508.797C1153.86 514.003 1155.89 520.856 1155.89 529.331V601.634H1140.71V530.566C1140.71 525.771 1139.75 522.115 1137.84 519.572C1135.93 517.03 1133.39 515.771 1130.25 515.771C1125.73 515.771 1122.16 518.144 1119.5 522.865C1116.84 527.587 1115.51 534.004 1115.51 542.067V601.634H1100.34V530.566C1100.34 525.771 1099.35 522.115 1097.37 519.572C1095.39 517.03 1092.75 515.771 1089.47 515.771C1085.09 515.771 1081.62 518.144 1079.01 522.865C1076.4 527.587 1075.12 534.004 1075.12 542.067V542.092Z" fill="#1D1D1B"/>
<path d="M930.634 514.342L930.924 499.139L1025.62 500.943L1025.33 516.147L986.194 515.401L984.605 598.804L968.203 598.491L969.792 515.088L930.634 514.342Z" fill="#1D1D1B"/>
<path d="M1029.74 235.685C1039.23 223.056 1052.16 214.569 1068.52 210.175C1078.41 207.518 1087.41 207.583 1095.54 210.364C1103.64 213.152 1108.76 218.521 1110.89 226.448C1113.23 235.171 1112.39 242.544 1108.34 248.521C1104.29 254.497 1097.52 259.551 1087.99 263.665C1075.81 268.916 1068.04 273.311 1064.69 276.844C1061.31 280.384 1060.11 283.916 1061.07 287.494C1063.52 296.615 1071.81 299.276 1085.93 295.484C1100.98 291.441 1111.79 284.575 1118.39 274.855L1132.77 283.327C1124.87 296.082 1110.56 305.239 1089.84 310.804C1077.57 314.101 1067.48 314.178 1059.57 311.064C1051.65 307.95 1046.5 301.889 1044.08 292.885C1041.98 285.075 1042.81 278.207 1046.58 272.229C1050.36 266.251 1057.71 260.741 1068.68 255.664C1079.76 250.555 1087.01 246.527 1090.46 243.544C1093.92 240.56 1095.1 237.158 1094.07 233.322C1091.84 224.997 1083.65 222.734 1069.53 226.526C1057.8 229.678 1048.48 235.867 1041.62 245.081L1029.77 235.702L1029.74 235.685Z" fill="#1D1D1B"/>
<path d="M813.633 279.248L818.873 463.506L786.016 464.441L779.864 248.126L948.092 243.342L948.95 273.524L815.454 277.321L813.58 277.374L813.633 279.248Z" stroke="black" stroke-width="3.75"/>
<path d="M600.832 343.521L542.25 341.544L545.576 243L603.554 244.957C611.208 245.215 617.531 247.682 622.57 252.382C627.609 257.083 629.99 263.196 629.736 270.722C629.38 281.274 624.417 288.641 614.848 292.825C628.012 296.007 634.377 303.684 633.965 315.881C633.656 325.053 630.446 332.043 624.338 336.828C618.229 341.637 610.393 343.868 600.831 343.545L600.832 343.521ZM599.792 259.003L561.47 257.71L560.563 284.596L598.667 285.882C602.772 286.021 606.076 284.824 608.627 282.318C611.177 279.812 612.52 276.562 612.654 272.593C612.796 268.358 611.675 265.049 609.288 262.716C606.901 260.382 603.728 259.136 599.768 259.002L599.792 259.003ZM600.876 299.937L560.116 298.561L559.125 327.916L597.64 329.216C602.976 329.396 607.484 328.361 611.187 326.087C614.89 323.814 616.826 320.148 616.997 315.09C617.15 310.565 615.845 306.959 613.059 304.273C610.273 301.586 606.236 300.142 600.9 299.962L600.876 299.937Z" fill="#1D1D1B"/>
<path d="M445.805 375.75C437.614 375.75 429.569 374.37 421.716 371.634C413.864 368.897 407.534 364.66 402.75 358.897V276.109C402.75 263.929 406.785 253.856 414.855 245.913C422.924 237.971 433.362 234 446.216 234C457.837 234 467.163 237.172 474.194 243.54C481.225 249.909 484.752 258.359 484.752 268.917C484.752 285.068 477.987 295.892 464.457 301.388C472.938 303.301 479.751 307.272 484.946 313.302C490.14 319.331 492.726 326.789 492.726 335.7C492.726 348.025 488.425 357.783 479.824 364.975C471.222 372.166 459.867 375.75 445.805 375.75ZM419.155 276.52V296.231H443.751C451.12 296.231 456.846 293.93 460.857 289.354C464.892 284.777 466.897 278.651 466.897 270.975C466.897 264.001 464.989 258.505 461.147 254.534C457.33 250.563 452.063 248.577 445.37 248.577C437.59 248.577 431.26 251.216 426.404 256.495C421.547 261.774 419.131 268.457 419.131 276.52H419.155ZM445.587 311.025H419.155V351.899C425.437 357.928 434.594 360.931 446.626 360.931C455.107 360.931 461.92 358.606 467.115 353.957C472.309 349.308 474.895 343.206 474.895 335.675C474.895 328.145 472.261 322.333 466.994 317.805C461.727 313.277 454.599 311.025 445.563 311.025H445.587Z" fill="#1D1D1B"/>
<path d="M0 199.125C580.018 255.64 894.305 252.422 1440 199.125" stroke="#172FF2" stroke-width="3.75"/>
<path d="M2.5874 402.75C577.91 495.59 891.778 512.121 1439.74 493.209" stroke="#172FF2" stroke-width="3.75"/>
<path d="M249.375 217.875L226.125 216.375L223.5 220.5L241.125 222.375L244.875 220.125L249.375 217.875Z" fill="#1D1D1B"/>
<rect x="121.463" y="186.252" width="9.75" height="33" transform="rotate(7.55961 121.463 186.252)" fill="#172FF2"/>
<rect x="440.25" y="210" width="9.75" height="33" fill="#172FF2"/>
<rect x="552.75" y="217.5" width="9.75" height="33" fill="#172FF2"/>
<rect x="601.903" y="218.886" width="9.75" height="33" transform="rotate(1.39685 601.903 218.886)" fill="#172FF2"/>
<rect x="545.148" y="458.567" width="9.75" height="33" transform="rotate(4.2688 545.148 458.567)" fill="#172FF2"/>
<rect x="608.523" y="462.437" width="9.75" height="33" transform="rotate(0.705931 608.523 462.437)" fill="#172FF2"/>
<rect x="785.929" y="222.005" width="9.75" height="33" transform="rotate(-5.68975 785.929 222.005)" fill="#172FF2"/>
<rect x="932" y="218.511" width="9.75" height="33" transform="rotate(-4.2929 932 218.511)" fill="#172FF2"/>
<rect x="950.562" y="473.356" width="9.75" height="33" transform="rotate(0.796163 950.562 473.356)" fill="#172FF2"/>
<rect x="999.691" y="475.425" width="9.75" height="33" transform="rotate(2.19301 999.691 475.425)" fill="#172FF2"/>
<rect x="1083.15" y="478.711" width="9.75" height="33" transform="rotate(-2.30223 1083.15 478.711)" fill="#172FF2"/>
<rect x="1132.32" y="478.121" width="9.75" height="33" transform="rotate(-0.905381 1132.32 478.121)" fill="#172FF2"/>
<path d="M1035.5 229L1031 234L1054 233L1067 227L1035.5 229Z" fill="#1D1D1B"/>
<path d="M442.125 468.375L439.125 461.25L454.5 458.25L459.75 469.5L442.125 468.375Z" fill="#1D1D1B"/>
</svg>
