<svg width="228" height="221" viewBox="0 0 228 221" fill="none" xmlns="http://www.w3.org/2000/svg">
<path d="M226.875 115.927C226.875 172.741 179.215 218.906 120.289 218.906C61.363 218.906 13.7031 172.741 13.7031 115.927C13.7031 59.1121 61.363 12.9475 120.289 12.9475C179.215 12.9475 226.875 59.1121 226.875 115.927Z" fill="white" stroke="#172FF2" stroke-width="3.75"/>
<line x1="94.5327" y1="216.482" x2="49.9632" y2="161.865" stroke="#172FF2" stroke-width="3.75"/>
<line x1="113.077" y1="219.198" x2="68.7656" y2="163.292" stroke="#172FF2" stroke-width="3.75"/>
<line x1="128.849" y1="219.035" x2="74.5147" y2="151.365" stroke="#172FF2" stroke-width="3.75"/>
<line x1="155.559" y1="213.151" x2="95.0164" y2="156.988" stroke="#172FF2" stroke-width="3.75"/>
<line x1="171.675" y1="206.818" x2="118.862" y2="154.777" stroke="#172FF2" stroke-width="3.75"/>
<line x1="198.058" y1="186.3" x2="149.108" y2="137.609" stroke="#172FF2" stroke-width="3.75"/>
<line x1="209.98" y1="173.486" x2="158.455" y2="127.371" stroke="#172FF2" stroke-width="3.75"/>
<line x1="217.686" y1="158.265" x2="182.906" y2="126.062" stroke="#172FF2" stroke-width="3.75"/>
<line x1="225.89" y1="131.434" x2="182.867" y2="89.1829" stroke="#172FF2" stroke-width="3.75"/>
<line x1="227.493" y1="115.258" x2="198.639" y2="89.2377" stroke="#172FF2" stroke-width="3.75"/>
<line x1="224.41" y1="95.6849" x2="200.45" y2="74.3019" stroke="#172FF2" stroke-width="3.75"/>
<line x1="218.598" y1="77.2299" x2="191.805" y2="56.8774" stroke="#172FF2" stroke-width="3.75"/>
<path d="M215.797 104.849C215.797 161.663 168.137 207.828 109.211 207.828C50.2849 207.828 2.625 161.663 2.625 104.849C2.625 48.034 50.2849 1.86938 109.211 1.86938C168.137 1.86938 215.797 48.034 215.797 104.849Z" fill="white" stroke="#172FF2" stroke-width="3.75"/>
<circle cx="109.34" cy="104.977" r="88.1657" fill="#D1D5FC" stroke="#172FF2" stroke-width="3.75"/>
</svg>
