<svg width="492" height="376" viewBox="0 0 492 376" fill="none" xmlns="http://www.w3.org/2000/svg">
<path d="M179.204 135.951L90.8535 166.351" stroke="#172FF2" stroke-width="15" stroke-linecap="round"/>
<path d="M57.9512 158.733C59.7114 163.848 52.8443 170.849 42.6132 174.37C32.382 177.89 22.6611 176.597 20.9009 171.481C19.1407 166.366 26.0078 159.365 36.2389 155.845C46.4701 152.324 56.191 153.617 57.9512 158.733Z" fill="white"/>
<path d="M64.3255 177.258C66.0857 182.374 59.2186 189.374 48.9874 192.895C38.7563 196.415 29.0354 195.122 27.2752 190.007C25.515 184.891 32.382 177.89 42.6132 174.37C52.8443 170.849 62.5653 172.142 64.3255 177.258Z" fill="white"/>
<path d="M70.6997 195.783C72.4599 200.899 65.5928 207.9 55.3617 211.42C52.6063 212.368 49.8878 212.967 47.352 213.236C40.4719 213.967 34.9356 212.27 33.6494 208.532C31.8892 203.416 38.7563 196.415 48.9874 192.895C59.2186 189.374 68.9395 190.668 70.6997 195.783Z" fill="white"/>
<path d="M45.6996 125.496C37.2995 105.453 33.0258 101.967 25.941 102.811C18.8562 103.655 11.031 115.113 17.1304 128.154C23.2299 141.196 37.7402 145.014 34.5132 156.483C35.0767 156.26 35.6523 156.046 36.2389 155.845C46.4701 152.324 56.191 153.617 57.9512 158.733C59.7114 163.848 52.8443 170.849 42.6132 174.37C52.8443 170.849 62.5653 172.142 64.3255 177.258C66.0857 182.374 59.2186 189.374 48.9874 192.895C59.2186 189.374 68.9395 190.668 70.6997 195.783C72.4599 200.899 65.5928 207.9 55.3617 211.42C52.6063 212.368 49.8878 212.967 47.352 213.236C47.1502 213.258 46.9494 213.277 46.75 213.294C46.75 213.294 73.75 219.125 84.25 195.333C85.0276 195.269 85.881 194.872 86.8146 194.037C93.8596 189.036 91.8746 169.372 86.2358 152.985C82.2561 141.419 72.4966 140.792 71.4208 150.725C64.6086 138.809 52.698 142.194 45.6996 125.496Z" fill="white"/>
<path d="M72.6804 159.854C72.6804 159.854 70.9704 154.884 71.4208 150.725M42.6132 174.37C52.8443 170.849 59.7114 163.848 57.9512 158.733C56.191 153.617 46.4701 152.324 36.2389 155.845M42.6132 174.37C32.382 177.89 22.6611 176.597 20.9009 171.481C19.1407 166.366 26.0078 159.365 36.2389 155.845M42.6132 174.37C32.382 177.89 25.515 184.891 27.2752 190.007C29.0354 195.122 38.7563 196.415 48.9874 192.895M42.6132 174.37C52.8443 170.849 62.5652 172.142 64.3254 177.258C66.0857 182.374 59.2186 189.374 48.9874 192.895M36.2389 155.845C35.6523 156.046 35.0767 156.26 34.5132 156.483C37.7402 145.014 23.2299 141.196 17.1304 128.154C11.031 115.113 18.8562 103.655 25.941 102.811C33.0258 101.967 37.2995 105.453 45.6996 125.496C52.698 142.194 64.6086 138.809 71.4208 150.725M48.9874 192.895C38.7563 196.415 31.8892 203.416 33.6494 208.532C34.9356 212.27 40.4719 213.967 47.352 213.236M48.9874 192.895C59.2186 189.374 68.9395 190.668 70.6997 195.783C72.4599 200.899 65.5928 207.9 55.3617 211.42C52.6063 212.368 49.8878 212.967 47.352 213.236M77.4877 183.088C77.4877 183.088 79.3849 195.733 84.25 195.333M71.4208 150.725C72.4966 140.792 82.2561 141.419 86.2358 152.985C91.8746 169.372 93.8596 189.036 86.8146 194.037C85.881 194.872 85.0276 195.269 84.25 195.333M84.25 195.333C73.75 219.125 46.75 213.294 46.75 213.294M46.75 213.294L47.352 213.236M46.75 213.294C46.9494 213.277 47.1502 213.258 47.352 213.236" stroke="#172FF2" stroke-width="3.75" stroke-linecap="round"/>
<path d="M433.997 134.652C434.509 131.538 433.757 128.497 431.066 126.489C423.039 120.501 404.034 141.219 410.267 146.897C411.692 148.194 413.233 149.032 414.837 149.455M433.997 134.652C433.619 136.953 432.551 139.293 431.066 141.285C426.371 147.582 420.251 150.882 414.837 149.455M433.997 134.652C444.711 135.212 453.357 138.898 457.954 142.815C462.551 146.732 462.261 149.522 464.042 154.039C485.804 157.86 490.733 161.183 488.899 168.834C486.137 177.884 476.529 173.58 457.954 164.243C474.344 177.822 481.098 184.57 475.202 190.262C468.916 195.003 462.729 190.301 448.315 172.406C457.416 187.471 464.042 198.425 457.954 202.506C451.866 206.588 444.918 201.558 440.706 188.221C437.344 179.192 434.702 177.453 429.038 178.528C428.079 194.988 426.285 200.562 418.892 198.425C411.533 194.896 410.719 189.933 418.892 172.406C416.196 165.68 414.898 161.473 414.837 149.455" stroke="#172FF2" stroke-width="3.75" stroke-linecap="round"/>
<path d="M312.25 104.459C322.229 93.3612 392.513 110.494 418.624 134.133" stroke="#172FF2" stroke-width="15" stroke-linecap="round"/>
<path d="M283.409 372.892C303.866 371.371 312.289 365.925 312.523 349.018C312.155 335.689 297.569 328.116 283.409 328.484L280.5 316.284C294.83 307.559 292.124 284.385 268.852 284.385C260.667 284.385 252.225 286.686 245.564 292.07C238.012 298.173 232.75 308.237 232.75 323.398C238.605 363.575 253.129 375.513 283.409 372.892Z" fill="white"/>
<path d="M268.852 332.132C273.18 329.799 278.267 328.618 283.409 328.484M268.852 319.322C273.509 319.322 277.403 318.17 280.5 316.284M280.5 316.284C294.83 307.559 292.124 284.385 268.852 284.385C260.667 284.385 252.225 286.686 245.564 292.07M280.5 316.284L283.409 328.484M283.409 328.484C297.569 328.116 312.155 335.689 312.523 349.018C312.289 365.925 303.866 371.371 283.409 372.892C253.129 375.513 238.605 363.575 232.75 323.398C232.75 308.237 238.012 298.173 245.564 292.07M245.564 311.752C241.278 304.985 240.994 300.736 245.564 292.07" stroke="#172FF2" stroke-width="3.75" stroke-linecap="round"/>
<path d="M281.662 173.75C311.678 221.647 309.617 249.749 267.688 302.435" stroke="#172FF2" stroke-width="15" stroke-linecap="round"/>
<path d="M205.196 178.25L166.055 313.567" stroke="#172FF2" stroke-width="15" stroke-linecap="round"/>
<path d="M156.849 356.887C146.617 365.979 138.058 364.035 116.093 343.749C92.0369 321.893 74.0177 300.026 92.7964 279.136C98.106 273.229 105.102 269.566 112.278 269.91C112.444 269.918 112.611 269.928 112.778 269.941C122.032 270.483 129.314 269.778 137.822 276.345C145.086 281.953 145.303 287.094 148.304 292.565C148.304 292.565 157.39 280.058 170.273 292.43C183.157 304.803 178.754 310.077 174.665 320.277C175.962 329.974 170.007 341.162 163.21 350.146C161.638 352.36 159.503 354.558 156.849 356.887Z" fill="white"/>
<path d="M156.209 318.612C167.232 333.965 168.883 342.159 163.21 350.146M134.55 287.837C128.237 275.487 120.15 270.287 112.278 269.91M163.21 350.146C161.638 352.36 159.503 354.558 156.849 356.887C146.617 365.979 138.058 364.035 116.093 343.749C92.0369 321.893 74.0177 300.026 92.7964 279.136C98.106 273.229 105.102 269.566 112.278 269.91M163.21 350.146C170.007 341.162 175.962 329.974 174.665 320.277M112.278 269.91C121.771 270.511 129.162 269.66 137.822 276.345C145.086 281.953 145.303 287.094 148.304 292.565M148.304 292.565C150.635 296.815 154.646 301.264 164.942 306.285C171.064 310.096 173.953 314.963 174.665 320.277M148.304 292.565C148.304 292.565 157.39 280.058 170.273 292.43C183.157 304.803 178.754 310.077 174.665 320.277" stroke="#172FF2" stroke-width="3.75" stroke-linecap="round"/>
<path d="M353.125 116.432C353.125 173.247 305.465 219.412 246.539 219.412C187.613 219.412 139.953 173.247 139.953 116.432C139.953 59.6178 187.613 13.4531 246.539 13.4531C305.465 13.4531 353.125 59.6178 353.125 116.432Z" fill="white" stroke="#172FF2" stroke-width="3.75"/>
<line x1="220.783" y1="216.988" x2="176.213" y2="162.371" stroke="#172FF2" stroke-width="3.75"/>
<line x1="239.327" y1="219.703" x2="195.016" y2="163.798" stroke="#172FF2" stroke-width="3.75"/>
<line x1="255.099" y1="219.541" x2="200.765" y2="151.87" stroke="#172FF2" stroke-width="3.75"/>
<line x1="281.809" y1="213.657" x2="221.266" y2="157.494" stroke="#172FF2" stroke-width="3.75"/>
<line x1="297.925" y1="207.324" x2="245.112" y2="155.283" stroke="#172FF2" stroke-width="3.75"/>
<line x1="324.308" y1="186.805" x2="275.358" y2="138.115" stroke="#172FF2" stroke-width="3.75"/>
<line x1="336.23" y1="173.992" x2="284.705" y2="127.877" stroke="#172FF2" stroke-width="3.75"/>
<line x1="343.936" y1="158.771" x2="309.156" y2="126.567" stroke="#172FF2" stroke-width="3.75"/>
<line x1="352.14" y1="131.94" x2="309.117" y2="89.6888" stroke="#172FF2" stroke-width="3.75"/>
<line x1="353.743" y1="115.764" x2="324.889" y2="89.7434" stroke="#172FF2" stroke-width="3.75"/>
<line x1="350.66" y1="96.1906" x2="326.7" y2="74.8076" stroke="#172FF2" stroke-width="3.75"/>
<line x1="344.848" y1="77.7355" x2="318.055" y2="57.383" stroke="#172FF2" stroke-width="3.75"/>
<path d="M342.047 105.354C342.047 162.169 294.387 208.333 235.461 208.333C176.535 208.333 128.875 162.169 128.875 105.354C128.875 48.5396 176.535 2.375 235.461 2.375C294.387 2.375 342.047 48.5396 342.047 105.354Z" fill="white" stroke="#172FF2" stroke-width="3.75"/>
<circle cx="235.59" cy="105.483" r="88.1657" fill="#D1D5FC" stroke="#172FF2" stroke-width="3.75"/>
<path d="M194.838 153.995C201.014 156.382 206.577 154.475 210.403 150.784M215.709 138.744C215.749 143.006 213.734 147.572 210.403 150.784M253.436 138.744C252.584 145.14 256.035 149.951 260.661 152.574M273.504 153.995C269.741 155.501 264.744 154.889 260.661 152.574M210.403 150.784C216.804 164.329 249.125 167.17 260.661 152.574M223.736 167.642C227.749 173.261 246.212 173.261 248.62 169.247" stroke="#172FF2" stroke-width="3.75"/>
<path d="M221.939 126.375C226.087 126.828 242.007 61.3567 212.306 59.7495C210.314 59.7495 208.442 59.9414 206.687 60.3147C202.695 70.989 200.108 79.6379 198.686 88.6492L206.687 94.2682L197.563 99.0845C197.149 105.912 197.276 113.375 197.857 122.325C210.665 120.156 221.939 126.375 221.939 126.375Z" fill="#172FF2"/>
<path d="M188.224 125.691C191.431 123.909 194.691 122.861 197.857 122.325C197.276 113.375 197.149 105.912 197.563 99.0845L206.687 94.2682L198.686 88.6492C200.108 79.6379 202.695 70.989 206.687 60.3147C187.22 64.4559 182.151 90.9291 188.224 125.691Z" fill="white"/>
<path d="M181 131.192C183.332 128.859 185.763 127.059 188.224 125.691M188.224 125.691C191.431 123.909 194.691 122.861 197.857 122.325M188.224 125.691C182.151 90.9291 187.22 64.4559 206.687 60.3147M197.857 122.325C210.665 120.156 221.939 126.375 221.939 126.375C226.087 126.828 242.007 61.3567 212.306 59.7495C210.314 59.7495 208.442 59.9414 206.687 60.3147M197.857 122.325C197.276 113.375 197.149 105.912 197.563 99.0846L206.687 94.2682L198.686 88.6492C200.108 79.6379 202.695 70.989 206.687 60.3147" stroke="#172FF2" stroke-width="3.75"/>
<path d="M286.156 126.2C289.187 87.3121 294.183 62.1599 270.904 59.7516C269.776 59.635 268.707 59.5923 267.693 59.6214C262.504 70.5244 260.173 80.1715 259.52 91.8605L269.298 95.8741L259.33 101.493C259.403 108.138 259.836 115.544 260.469 124.152C269.004 123.115 279.336 123.698 286.156 126.2Z" fill="#172FF2"/>
<path d="M250.033 126.72C252.712 125.515 256.385 124.648 260.469 124.152C259.836 115.544 259.403 108.138 259.33 101.493L269.298 95.8741L259.52 91.8605C260.173 80.1715 262.504 70.5244 267.693 59.6214C247.767 60.1917 249.149 88.4303 250.033 126.72Z" fill="white"/>
<path d="M246.822 128.785C247.593 128.015 248.688 127.325 250.033 126.72M290.972 128.785C289.726 127.766 288.081 126.907 286.156 126.2M286.156 126.2C289.187 87.3121 294.183 62.1599 270.904 59.7516C269.776 59.635 268.707 59.5923 267.693 59.6214M286.156 126.2C279.336 123.698 269.004 123.115 260.469 124.152M250.033 126.72C252.712 125.515 256.385 124.648 260.469 124.152M250.033 126.72C249.149 88.4303 247.767 60.1917 267.693 59.6214M260.469 124.152C259.836 115.544 259.403 108.138 259.33 101.493L269.298 95.8741L259.52 91.8605C260.173 80.1715 262.504 70.5244 267.693 59.6214" stroke="#172FF2" stroke-width="3.75"/>
<path d="M233.177 122.363C246.823 94.2683 262.877 105.506 246.02 130.39L233.177 122.363Z" fill="#D1D5FC"/>
<path d="M233.177 122.363C246.823 94.2683 262.877 105.506 246.02 130.39" stroke="#172FF2" stroke-width="3.75"/>
<path d="M189.027 59.7515C190.633 51.7242 204.279 42.8943 209.898 47.7107" stroke="#172FF2" stroke-width="3.75"/>
<path d="M266.088 47.7109C271.707 43.6972 282.083 48.1186 288.564 58.949" stroke="#172FF2" stroke-width="3.75"/>
</svg>
