<svg width="106" height="77" viewBox="0 0 106 77" fill="none" xmlns="http://www.w3.org/2000/svg">
<path fill-rule="evenodd" clip-rule="evenodd" d="M38.6077 28.3537L52.7254 3.25L66.8679 28.3979L101.154 8.45935L103.75 12.8903L69.3855 32.8746L80.6326 52.874L103.707 66.3372L101.103 70.7639L85.6098 61.7243L93.2163 75.25H12.2345L19.8726 61.6681L4.34605 70.6974L1.75 66.2664L24.837 52.8405L36.0899 32.8309L1.79285 12.8196L4.39714 8.39286L38.6077 28.3537ZM40.6065 35.4662L33.7509 47.6567L47.6482 39.5749L40.6065 35.4662ZM28.7864 56.4844L21.2325 69.9167H84.2183L76.6815 56.515L52.7475 42.5502L28.7864 56.4844ZM71.7043 47.6646L64.8651 35.5033L57.8516 39.5819L71.7043 47.6646ZM62.3476 31.0267L52.7523 36.6067L43.1243 30.989L52.7254 13.9167L62.3476 31.0267Z" fill="#172FF2" stroke="#172FF2" stroke-width="2.25"/>
</svg>
