<svg width="1440" height="515" viewBox="0 0 1440 515" fill="none" xmlns="http://www.w3.org/2000/svg">
<path d="M834 0L835.396 10.2183C836.916 21.3393 845.661 30.0844 856.782 31.6038L867 33L856.782 34.3962C845.661 35.9156 836.916 44.6607 835.396 55.7817L834 66L832.604 55.7817C831.084 44.6607 822.339 35.9156 811.218 34.3962L801 33L811.218 31.6038C822.339 30.0844 831.084 21.3393 832.604 10.2183L834 0Z" fill="#172FF2"/>
<path d="M1197.75 234.75L1199.15 244.968C1200.67 256.089 1209.41 264.834 1220.53 266.354L1230.75 267.75L1220.53 269.146C1209.41 270.666 1200.67 279.411 1199.15 290.532L1197.75 300.75L1196.35 290.532C1194.83 279.411 1186.09 270.666 1174.97 269.146L1164.75 267.75L1174.97 266.354C1186.09 264.834 1194.83 256.089 1196.35 244.968L1197.75 234.75Z" fill="#172FF2"/>
<path d="M121.5 399.75L122.896 409.968C124.416 421.089 133.161 429.834 144.282 431.354L154.5 432.75L144.282 434.146C133.161 435.666 124.416 444.411 122.896 455.532L121.5 465.75L120.104 455.532C118.584 444.411 109.839 435.666 98.7183 434.146L88.5 432.75L98.7183 431.354C109.839 429.834 118.584 421.089 120.104 409.968L121.5 399.75Z" fill="#172FF2"/>
<path d="M149.439 211.772L149.665 211.178C141.192 220.998 130.466 225.553 117.51 224.845C105.496 224.189 95.7849 219.026 88.3764 209.358C80.968 199.69 77.693 186.998 78.5516 171.282C79.4101 155.566 84.0495 143.282 92.4657 134.503C100.883 125.699 111.099 121.625 123.113 122.281C135.948 122.982 146.018 128.674 153.395 139.359L153.417 138.948C153.376 134.823 153.467 130.511 153.712 126.014L170.093 126.909C169.366 137.564 168.421 153.978 167.211 176.125C165.911 199.917 165.087 216.337 164.715 225.363L148.141 224.457C148.358 220.492 148.782 216.271 149.439 211.772ZM146.118 148.54C140.891 141.464 134.248 137.707 126.215 137.268C118.181 136.829 111.145 139.839 105.202 146.305C99.2351 152.769 95.9571 161.393 95.3667 172.2C94.7763 183.008 97.0953 191.938 102.323 199.013C107.55 206.089 114.192 209.847 122.226 210.286C130.259 210.725 137.272 207.713 143.239 201.249C149.205 194.784 152.483 186.161 153.074 175.353C153.664 164.545 151.345 155.616 146.118 148.54Z" fill="#1D1D1B"/>
<path d="M331.487 184.148C332.076 192.626 330.256 199.549 326.052 204.914C321.823 210.281 315.973 213.236 308.477 213.757C303.03 214.135 298.279 213.033 294.271 210.423C290.263 207.813 287.558 204.433 286.18 200.281C278.292 210.854 267.719 216.588 254.511 217.506C245.111 218.159 237.402 216.316 231.435 211.997C225.443 207.68 222.194 201.692 221.662 194.035C221.13 186.378 223.43 179.397 228.594 173.893C233.758 168.388 241.172 164.256 250.841 161.546C257.012 159.733 267.61 157.492 282.632 154.798L282.12 147.43C281.656 140.739 279.07 135.943 274.34 133.043C269.609 130.144 264.123 128.923 257.857 129.358C251.59 129.794 246.264 131.571 242.289 134.663C238.314 137.755 236.486 141.426 236.78 145.653L236.808 146.064C236.971 146.319 237.091 146.651 237.192 147.057C237.293 147.462 237.345 147.871 237.374 148.282L222.258 152.415C221.438 148.637 221.03 146.602 221.012 146.336C220.423 137.857 223.648 130.594 230.687 124.547C237.727 118.499 246.837 115.075 258.021 114.298C269.205 113.521 279.221 115.811 286.455 121.279C293.689 126.747 297.637 134.41 298.32 144.242L301.679 192.602C301.822 194.655 302.592 196.325 303.988 197.588C305.385 198.874 307.095 199.435 309.144 199.293C312.132 199.085 314.366 197.425 315.771 194.293C317.202 191.184 317.736 187.02 317.376 181.827L331.511 184.146L331.487 184.148ZM238.478 191.022C238.754 194.984 240.447 198.094 243.535 200.355C246.647 202.615 250.565 203.581 255.337 203.249C261.339 202.832 266.929 201.036 272.11 197.86C277.29 194.685 281.505 190.509 284.707 185.359L283.453 167.314C268.586 170.143 257.867 172.733 251.323 175.105C247.046 176.64 243.785 178.857 241.516 181.757C239.247 184.658 238.228 187.763 238.454 191.024L238.478 191.022Z" fill="#1D1D1B"/>
<path d="M572.955 484.194C580.183 484.737 586.574 482.886 592.174 478.645C597.775 474.403 600.858 468.516 601.423 461.006L605.964 400.569L622.324 401.798C621.441 411.615 620.16 428.006 618.436 450.945C616.713 473.884 615.553 490.285 614.935 500.121L598.383 498.877C598.7 494.652 599.196 490.634 599.894 486.825C591.694 495.679 581.317 499.635 568.789 498.693C558.429 497.915 550.015 493.81 543.498 486.375C537.006 478.943 534.167 469.648 535.009 458.444L539.734 395.567L556.503 396.828L551.961 457.265C551.346 465.451 552.996 471.864 556.89 476.479C560.783 481.094 566.139 483.657 572.957 484.17L572.955 484.194Z" fill="#1D1D1B"/>
<path d="M472.492 450.534L437.936 371.931L430.644 468.931L408.681 478.586L369 388.323L383.266 382.052L417.081 458.97L425.114 363.655L447.077 354L486.758 444.263L472.492 450.534Z" fill="#1D1D1B"/>
<path d="M1075.12 455.092V514.658H1059.75C1059.89 504.803 1059.94 488.362 1059.94 465.358C1059.94 442.355 1059.87 425.913 1059.75 416.058H1075.12C1075.12 419.618 1075.04 422.281 1074.92 424.073C1079.97 417.366 1086.13 414 1093.36 414C1097.73 414 1101.67 415.259 1105.15 417.802C1108.63 420.344 1111.26 423.855 1113.05 428.383C1118.1 418.794 1125.15 414 1134.17 414C1140.45 414 1145.64 416.615 1149.75 421.797C1153.86 427.003 1155.89 433.856 1155.89 442.331V514.634H1140.71V443.566C1140.71 438.771 1139.75 435.115 1137.84 432.572C1135.93 430.03 1133.39 428.771 1130.25 428.771C1125.73 428.771 1122.16 431.144 1119.5 435.865C1116.84 440.587 1115.51 447.004 1115.51 455.067V514.634H1100.34V443.566C1100.34 438.771 1099.35 435.115 1097.37 432.572C1095.39 430.03 1092.75 428.771 1089.47 428.771C1085.09 428.771 1081.62 431.144 1079.01 435.865C1076.4 440.587 1075.12 447.004 1075.12 455.067V455.092Z" fill="#1D1D1B"/>
<path d="M930.634 427.342L930.924 412.139L1025.62 413.943L1025.33 429.147L986.194 428.401L984.605 511.804L968.203 511.491L969.792 428.088L930.634 427.342Z" fill="#1D1D1B"/>
<path d="M881.674 156.011C891.165 143.383 904.096 134.895 920.453 130.501C930.347 127.844 939.346 127.909 947.473 130.69C955.577 133.478 960.696 138.847 962.826 146.775C965.169 155.497 964.322 162.87 960.274 168.847C956.225 174.824 949.452 179.877 939.925 183.991C927.75 189.242 919.975 193.637 916.621 197.171C913.244 200.71 912.041 204.243 913.002 207.821C915.452 216.941 923.747 219.602 937.864 215.81C952.914 211.767 963.729 204.901 970.324 195.181L984.708 203.653C976.802 216.408 962.5 225.565 941.779 231.131C929.505 234.427 919.419 234.504 911.503 231.39C903.586 228.277 898.431 222.215 896.012 213.212C893.914 205.401 894.746 198.533 898.52 192.555C902.293 186.577 909.644 181.068 920.613 175.99C931.7 170.881 938.949 166.853 942.4 163.87C945.852 160.887 947.039 157.484 946.009 153.649C943.773 145.323 935.585 143.06 921.468 146.852C909.731 150.004 900.411 156.194 893.554 165.407L881.703 156.029L881.674 156.011Z" fill="#1D1D1B"/>
<path d="M780.729 257.971L777.805 159.415L854.844 157.129L855.295 172.329L794.654 174.128L797.127 257.509L780.729 257.996L780.729 257.971Z" fill="#1D1D1B"/>
<path d="M600.832 256.521L542.25 254.544L545.576 156L603.554 157.957C611.208 158.215 617.531 160.682 622.57 165.382C627.609 170.083 629.99 176.196 629.736 183.722C629.38 194.274 624.417 201.641 614.848 205.825C628.012 209.007 634.377 216.684 633.965 228.881C633.656 238.053 630.446 245.043 624.338 249.828C618.229 254.637 610.393 256.868 600.831 256.545L600.832 256.521ZM599.792 172.003L561.47 170.71L560.563 197.596L598.667 198.882C602.772 199.021 606.076 197.824 608.627 195.318C611.177 192.812 612.52 189.562 612.654 185.593C612.796 181.358 611.675 178.049 609.288 175.716C606.901 173.382 603.728 172.136 599.768 172.002L599.792 172.003ZM600.876 212.937L560.116 211.561L559.125 240.916L597.64 242.216C602.976 242.396 607.484 241.361 611.187 239.087C614.89 236.814 616.826 233.148 616.997 228.09C617.15 223.565 615.845 219.959 613.059 217.273C610.273 214.586 606.236 213.142 600.9 212.962L600.876 212.937Z" fill="#1D1D1B"/>
<path d="M445.805 288.75C437.614 288.75 429.569 287.37 421.716 284.634C413.864 281.897 407.534 277.66 402.75 271.897V189.109C402.75 176.929 406.785 166.856 414.855 158.913C422.924 150.971 433.362 147 446.216 147C457.837 147 467.163 150.172 474.194 156.54C481.225 162.909 484.752 171.359 484.752 181.917C484.752 198.068 477.987 208.892 464.457 214.388C472.938 216.301 479.751 220.272 484.946 226.302C490.14 232.331 492.726 239.789 492.726 248.7C492.726 261.025 488.425 270.783 479.824 277.975C471.222 285.166 459.867 288.75 445.805 288.75ZM419.155 189.52V209.231H443.751C451.12 209.231 456.846 206.93 460.857 202.354C464.892 197.777 466.897 191.651 466.897 183.975C466.897 177.001 464.989 171.505 461.147 167.534C457.33 163.563 452.063 161.577 445.37 161.577C437.59 161.577 431.26 164.216 426.404 169.495C421.547 174.774 419.131 181.457 419.131 189.52H419.155ZM445.587 224.025H419.155V264.899C425.437 270.928 434.594 273.931 446.626 273.931C455.107 273.931 461.92 271.606 467.115 266.957C472.309 262.308 474.895 256.206 474.895 248.675C474.895 241.145 472.261 235.333 466.994 230.805C461.727 226.277 454.599 224.025 445.563 224.025H445.587Z" fill="#1D1D1B"/>
<path d="M0 112.125C580.018 168.64 894.305 165.422 1440 112.125" stroke="#172FF2" stroke-width="3.75"/>
<path d="M2.5874 315.75C577.91 408.59 891.778 425.121 1439.74 406.209" stroke="#172FF2" stroke-width="3.75"/>
<path d="M249.375 130.875L226.125 129.375L223.5 133.5L241.125 135.375L244.875 133.125L249.375 130.875Z" fill="#1D1D1B"/>
<rect x="121.463" y="99.252" width="9.75" height="33" transform="rotate(7.55961 121.463 99.252)" fill="#172FF2"/>
<rect x="440.25" y="123" width="9.75" height="33" fill="#172FF2"/>
<rect x="552.75" y="130.5" width="9.75" height="33" fill="#172FF2"/>
<rect x="601.903" y="131.886" width="9.75" height="33" transform="rotate(1.39685 601.903 131.886)" fill="#172FF2"/>
<rect x="545.148" y="371.567" width="9.75" height="33" transform="rotate(4.2688 545.148 371.567)" fill="#172FF2"/>
<rect x="608.523" y="375.437" width="9.75" height="33" transform="rotate(0.705931 608.523 375.437)" fill="#172FF2"/>
<rect x="785.929" y="135.005" width="9.75" height="33" transform="rotate(-5.68975 785.929 135.005)" fill="#172FF2"/>
<rect x="834.978" y="131.511" width="9.75" height="33" transform="rotate(-4.2929 834.978 131.511)" fill="#172FF2"/>
<rect x="950.562" y="386.356" width="9.75" height="33" transform="rotate(0.796163 950.562 386.356)" fill="#172FF2"/>
<rect x="999.691" y="388.425" width="9.75" height="33" transform="rotate(2.19301 999.691 388.425)" fill="#172FF2"/>
<rect x="1083.15" y="391.711" width="9.75" height="33" transform="rotate(-2.30223 1083.15 391.711)" fill="#172FF2"/>
<rect x="1132.32" y="391.121" width="9.75" height="33" transform="rotate(-0.905381 1132.32 391.121)" fill="#172FF2"/>
<path d="M888 148.875L884.25 153L905.625 153.375L917.25 147.75L888 148.875Z" fill="#1D1D1B"/>
<path d="M442.125 381.375L439.125 374.25L454.5 371.25L459.75 382.5L442.125 381.375Z" fill="#1D1D1B"/>
</svg>
