<svg width="1202" height="576" viewBox="0 0 1202 576" fill="none" xmlns="http://www.w3.org/2000/svg">
<path d="M560.795 9.855H554V19.53H560.435C562.955 19.53 565.025 17.1 565.025 14.22C565.025 11.655 563.27 9.855 560.795 9.855ZM560.435 22.59H554V32.895H560.84C563.9 32.895 566.285 31.455 566.285 27.9C566.285 24.435 563.81 22.59 560.435 22.59ZM561.65 36H550.4V6.75H561.515C565.61 6.75 568.76 9.72 568.76 13.995C568.76 17.1 567.41 19.44 564.755 20.925C567.86 22.14 570.02 24.525 570.02 27.945C570.02 33.03 566.69 36 561.65 36ZM596.282 36H592.682V6.75H596.282V36ZM579.092 22.275H578.282V32.895H579.722C583.007 32.895 585.617 31.275 585.617 27.495C585.617 23.94 583.007 22.275 579.092 22.275ZM580.532 36H574.682V6.75H578.282V19.17H579.677C585.077 19.17 589.352 21.69 589.352 27.27C589.352 32.895 585.887 36 580.532 36ZM625.335 36H620.655L610.845 22.275H606.75V36H603.15V6.75H606.75V18.945H610.935L620.205 6.75H624.615L614.175 20.385L625.335 36ZM649.707 36H646.107V10.08H636.927C636.927 18.72 636.747 23.175 636.252 27.315C635.532 33.255 633.687 35.235 630.087 36.675L628.557 33.21C630.762 32.22 632.112 30.33 632.607 27.495C633.102 24.66 633.327 17.775 633.327 6.75H649.707V36Z" fill="black"/>
<path d="M555.44 563.31C553.37 566.055 550.625 567.45 547.25 567.45C540.5 567.45 535.955 561.42 535.955 552.42C535.955 543.285 540.5 537.3 547.25 537.3C554.045 537.3 558.545 543.375 558.545 552.42C558.545 556.92 557.51 560.565 555.44 563.31ZM547.25 564.03C551.75 564.03 554.765 559.395 554.765 552.42C554.765 545.4 551.75 540.72 547.25 540.72C542.705 540.72 539.735 545.4 539.735 552.42C539.735 559.395 542.705 564.03 547.25 564.03ZM585.977 545.4V548.73H576.032V567H572.432V548.73H562.487V545.4H585.977ZM602.925 567H599.505C599.55 565.155 599.55 562.095 599.55 557.82H598.02L592.62 567H588.705L595.275 556.245L588.84 545.4H592.755L597.975 554.49H599.55C599.55 550.26 599.55 547.245 599.505 545.4H602.925C602.88 547.245 602.88 550.26 602.88 554.49H604.455L609.81 545.4H613.725L607.155 556.155L613.59 567H609.675L604.41 557.82H602.88C602.88 562.995 602.88 566.055 602.925 567ZM637.332 567H633.912V547.2L624.552 567H619.062V545.4H622.482V563.715L631.257 545.4H637.332V567ZM657.925 560.475H652.345L647.845 547.155V567H644.605V545.4H650.995L655.315 558.405L659.5 545.4H665.845V567H662.605V547.2L657.925 560.475Z" fill="black"/>
<path d="M1065.74 63H1061.6L1053.23 50.49L1045.36 63H1041.31L1051.16 47.385L1042.03 33.75H1046.03L1053.64 45.045L1060.7 33.75H1064.62L1055.66 48.015L1065.74 63ZM1089.84 63H1086.24V44.73H1077.96C1077.96 51.795 1077.78 55.395 1076.84 58.32C1076.03 61.29 1074.68 62.505 1072.11 63.675L1070.58 60.21C1072.07 59.355 1073.19 58.635 1073.6 56.61C1073.96 55.08 1074.14 54.135 1074.27 51.21C1074.27 48.285 1074.36 46.215 1074.36 41.4H1089.84V63ZM1107.42 63.45C1101.25 63.45 1096.66 58.815 1096.66 52.2C1096.66 45.63 1101.25 40.95 1107.42 40.95C1113.58 40.95 1118.22 45.63 1118.22 52.2C1118.22 58.815 1113.67 63.45 1107.42 63.45ZM1102.38 57.69C1105.08 60.66 1109.85 60.66 1112.55 57.69C1115.2 54.81 1115.16 49.635 1112.55 46.665C1109.8 43.785 1105.12 43.785 1102.38 46.665C1099.72 49.68 1099.68 54.765 1102.38 57.69ZM1143.22 63H1139.62V44.73H1129.23V63H1125.63V41.4H1143.22V63ZM1161.38 63.45C1155.22 63.45 1150.63 58.815 1150.63 52.2C1150.63 45.63 1155.22 40.95 1161.38 40.95C1167.55 40.95 1172.18 45.63 1172.18 52.2C1172.18 58.815 1167.64 63.45 1161.38 63.45ZM1156.34 57.69C1159.04 60.66 1163.81 60.66 1166.51 57.69C1169.17 54.81 1169.12 49.635 1166.51 46.665C1163.77 43.785 1159.09 43.785 1156.34 46.665C1153.69 49.68 1153.64 54.765 1156.34 57.69ZM1200.65 63H1195.61L1187.2 53.82H1183.28C1183.28 58.995 1183.28 62.055 1183.33 63H1179.73C1179.77 60.84 1179.77 57.24 1179.77 52.2C1179.77 47.16 1179.77 43.56 1179.73 41.4H1183.33C1183.28 43.245 1183.28 46.26 1183.28 50.49H1187.29L1195.43 41.4H1199.93L1190.53 51.885L1200.65 63Z" fill="black"/>
<path d="M7.655 59.67H18.995V37.08H10.715C10.67 44.235 10.49 49.41 10.085 52.65C9.68 55.89 8.87 58.23 7.655 59.67ZM22.595 33.75V59.67H26.06V68.4H22.595V63H5.81V68.4H2.345V59.67C4.685 58.995 5.81 56.97 6.485 53.865C6.62 52.965 6.755 51.435 6.89 49.23C7.025 47.025 7.07 44.91 7.115 42.84V33.75H22.595ZM45.8874 45.9C41.9724 42.345 34.0974 44.595 33.8724 50.625H48.0924C47.8674 48.645 47.1024 47.07 45.8874 45.9ZM48.4524 56.7L51.2874 58.455C49.4424 61.65 45.8424 63.45 41.6574 63.45C35.2674 63.45 30.4524 58.815 30.4524 52.2C30.4524 45.585 35.0424 40.95 41.3874 40.95C47.3274 40.95 51.6474 45.225 51.6474 51.57C51.6474 52.425 51.6024 53.19 51.4674 53.91H33.9174C34.5924 57.825 37.5624 60.21 41.7024 60.21C44.5374 60.21 47.2374 58.815 48.4524 56.7ZM77.3248 63H73.7248V44.73H65.4448C65.4448 51.795 65.2648 55.395 64.3198 58.32C63.5098 61.29 62.1598 62.505 59.5948 63.675L58.0648 60.21C59.5498 59.355 60.6748 58.635 61.0798 56.61C61.4398 55.08 61.6198 54.135 61.7548 51.21C61.7548 48.285 61.8448 46.215 61.8448 41.4H77.3248V63ZM104.082 63H100.662V43.2L91.3023 63H85.8123V41.4H89.2323V59.715L98.0073 41.4H104.082V63ZM134.17 63H129.13L120.715 53.82H116.8C116.8 58.995 116.8 62.055 116.845 63H113.245C113.29 60.84 113.29 57.24 113.29 52.2C113.29 47.16 113.29 43.56 113.245 41.4H116.845C116.8 43.245 116.8 46.26 116.8 50.49H120.805L128.95 41.4H133.45L124.045 51.885L134.17 63ZM157.012 63.45C154.627 63.45 152.737 62.1 152.332 60.165C150.442 62.37 148.057 63.45 145.132 63.45C140.992 63.45 138.292 61.2 138.292 57.825C138.292 54.36 140.857 52.065 145.177 51.165C146.572 50.85 148.912 50.535 152.242 50.175V48.555C152.242 46.08 150.127 44.235 147.202 44.235C144.367 44.235 142.342 45.63 142.342 47.475C142.342 47.7 142.387 47.88 142.432 48.06L139.057 48.735C138.922 48.375 138.877 47.925 138.877 47.385C138.877 43.695 142.477 40.95 147.472 40.95C152.287 40.95 155.842 43.965 155.842 48.105V58.725C155.842 59.625 156.472 60.3 157.372 60.3C158.587 60.3 159.442 58.725 159.442 56.61L162.502 57.33C162.502 60.84 160.117 63.45 157.012 63.45ZM145.537 60.345C148.192 60.345 150.667 59.04 152.242 56.88V52.92C148.957 53.325 146.572 53.73 145.087 54.135C143.152 54.675 142.027 55.98 142.027 57.42C142.027 59.175 143.422 60.345 145.537 60.345ZM187.64 41.4V44.73H177.695V63H174.095V44.73H164.15V41.4H187.64ZM212.102 63H208.502V53.64H197.162V63H193.562V41.4H197.162V50.31H208.502V41.4H212.102V63ZM237.959 63.45C235.574 63.45 233.684 62.1 233.279 60.165C231.389 62.37 229.004 63.45 226.079 63.45C221.939 63.45 219.239 61.2 219.239 57.825C219.239 54.36 221.804 52.065 226.124 51.165C227.519 50.85 229.859 50.535 233.189 50.175V48.555C233.189 46.08 231.074 44.235 228.149 44.235C225.314 44.235 223.289 45.63 223.289 47.475C223.289 47.7 223.334 47.88 223.379 48.06L220.004 48.735C219.869 48.375 219.824 47.925 219.824 47.385C219.824 43.695 223.424 40.95 228.419 40.95C233.234 40.95 236.789 43.965 236.789 48.105V58.725C236.789 59.625 237.419 60.3 238.319 60.3C239.534 60.3 240.389 58.725 240.389 56.61L243.449 57.33C243.449 60.84 241.064 63.45 237.959 63.45ZM226.484 60.345C229.139 60.345 231.614 59.04 233.189 56.88V52.92C229.904 53.325 227.519 53.73 226.034 54.135C224.099 54.675 222.974 55.98 222.974 57.42C222.974 59.175 224.369 60.345 226.484 60.345ZM256.977 51.345H264.312V44.46H257.472C255.132 44.46 253.332 45.54 253.332 47.925C253.332 50.22 254.862 51.345 256.977 51.345ZM267.912 62.955H264.312V54.45H257.247L251.847 63H247.617L253.647 53.955C250.947 52.875 249.597 50.85 249.597 47.88C249.597 43.74 252.477 41.355 256.662 41.355H267.912V62.955Z" fill="black"/>
<path d="M7.655 136.17H18.995V113.58H10.715C10.67 120.735 10.49 125.91 10.085 129.15C9.68 132.39 8.87 134.73 7.655 136.17ZM22.595 110.25V136.17H26.06V144.9H22.595V139.5H5.81V144.9H2.345V136.17C4.685 135.495 5.81 133.47 6.485 130.365C6.62 129.465 6.755 127.935 6.89 125.73C7.025 123.525 7.07 121.41 7.115 119.34V110.25H22.595ZM45.8874 122.4C41.9724 118.845 34.0974 121.095 33.8724 127.125H48.0924C47.8674 125.145 47.1024 123.57 45.8874 122.4ZM48.4524 133.2L51.2874 134.955C49.4424 138.15 45.8424 139.95 41.6574 139.95C35.2674 139.95 30.4524 135.315 30.4524 128.7C30.4524 122.085 35.0424 117.45 41.3874 117.45C47.3274 117.45 51.6474 121.725 51.6474 128.07C51.6474 128.925 51.6024 129.69 51.4674 130.41H33.9174C34.5924 134.325 37.5624 136.71 41.7024 136.71C44.5374 136.71 47.2374 135.315 48.4524 133.2ZM79.7098 117.9V121.23H69.7648V139.5H66.1648V121.23H56.2198V117.9H79.7098ZM102.462 131.805L105.747 133.29C104.172 137.385 100.347 139.95 95.8023 139.95C89.6373 139.95 85.0473 135.315 85.0473 128.7C85.0473 122.13 89.6373 117.45 95.8023 117.45C100.932 117.45 105.027 120.6 106.197 125.505L102.867 126.585C102.102 123.21 99.3123 121.005 95.8473 121.005C91.6623 121.005 88.5573 124.245 88.5573 128.7C88.5573 133.155 91.6623 136.395 95.8473 136.395C98.8623 136.395 101.382 134.64 102.462 131.805ZM134.17 139.5H129.13L120.715 130.32H116.8C116.8 135.495 116.8 138.555 116.845 139.5H113.245C113.29 137.34 113.29 133.74 113.29 128.7C113.29 123.66 113.29 120.06 113.245 117.9H116.845C116.8 119.745 116.8 122.76 116.8 126.99H120.805L128.95 117.9H133.45L124.045 128.385L134.17 139.5ZM157.012 139.95C154.627 139.95 152.737 138.6 152.332 136.665C150.442 138.87 148.057 139.95 145.132 139.95C140.992 139.95 138.292 137.7 138.292 134.325C138.292 130.86 140.857 128.565 145.177 127.665C146.572 127.35 148.912 127.035 152.242 126.675V125.055C152.242 122.58 150.127 120.735 147.202 120.735C144.367 120.735 142.342 122.13 142.342 123.975C142.342 124.2 142.387 124.38 142.432 124.56L139.057 125.235C138.922 124.875 138.877 124.425 138.877 123.885C138.877 120.195 142.477 117.45 147.472 117.45C152.287 117.45 155.842 120.465 155.842 124.605V135.225C155.842 136.125 156.472 136.8 157.372 136.8C158.587 136.8 159.442 135.225 159.442 133.11L162.502 133.83C162.502 137.34 160.117 139.95 157.012 139.95ZM145.537 136.845C148.192 136.845 150.667 135.54 152.242 133.38V129.42C148.957 129.825 146.572 130.23 145.087 130.635C143.152 131.175 142.027 132.48 142.027 133.92C142.027 135.675 143.422 136.845 145.537 136.845ZM176.03 127.845H183.365V120.96H176.525C174.185 120.96 172.385 122.04 172.385 124.425C172.385 126.72 173.915 127.845 176.03 127.845ZM186.965 139.455H183.365V130.95H176.3L170.9 139.5H166.67L172.7 130.455C170 129.375 168.65 127.35 168.65 124.38C168.65 120.24 171.53 117.855 175.715 117.855H186.965V139.455Z" fill="black"/>
<path d="M25.475 186.75V190.08H15.8V216H12.2V190.08H2.525V186.75H25.475ZM47.7774 191.115C46.1574 191.115 44.8524 189.765 44.8524 188.145C44.8524 186.48 46.1574 185.175 47.7774 185.175C49.4424 185.175 50.7474 186.48 50.7474 188.145C50.7474 189.765 49.4424 191.115 47.7774 191.115ZM34.9524 191.115C33.3324 191.115 32.0274 189.765 32.0274 188.145C32.0274 186.48 33.3324 185.175 34.9524 185.175C36.6174 185.175 37.9224 186.48 37.9224 188.145C37.9224 189.765 36.6174 191.115 34.9524 191.115ZM45.8874 198.9C41.9724 195.345 34.0974 197.595 33.8724 203.625H48.0924C47.8674 201.645 47.1024 200.07 45.8874 198.9ZM48.4524 209.7L51.2874 211.455C49.4424 214.65 45.8424 216.45 41.6574 216.45C35.2674 216.45 30.4524 211.815 30.4524 205.2C30.4524 198.585 35.0424 193.95 41.3874 193.95C47.3274 193.95 51.6474 198.225 51.6474 204.57C51.6474 205.425 51.6024 206.19 51.4674 206.91H33.9174C34.5924 210.825 37.5624 213.21 41.7024 213.21C44.5374 213.21 47.2374 211.815 48.4524 209.7ZM70.7098 209.475H65.1298L60.6298 196.155V216H57.3898V194.4H63.7798L68.0998 207.405L72.2848 194.4H78.6298V216H75.3898V196.2L70.7098 209.475ZM104.172 216H100.572V206.64H89.2323V216H85.6323V194.4H89.2323V203.31H100.572V194.4H104.172V216ZM131.875 216H128.275C128.32 213.84 128.32 210.24 128.32 205.2C128.32 200.16 128.32 196.56 128.275 194.4H131.875C131.83 196.56 131.83 200.16 131.83 205.2C131.83 211.32 131.83 214.92 131.875 216ZM117.16 204.66H115.405V213.345H116.215C118.78 213.345 120.805 212.04 120.805 208.98C120.805 206.1 119.275 204.66 117.16 204.66ZM117.475 216H111.895V194.4H115.405V202.005H117.655C121.255 202.005 124.54 204.255 124.54 209.025C124.54 213.39 121.66 216 117.475 216ZM153.817 198.9C149.902 195.345 142.027 197.595 141.802 203.625H156.022C155.797 201.645 155.032 200.07 153.817 198.9ZM156.382 209.7L159.217 211.455C157.372 214.65 153.772 216.45 149.587 216.45C143.197 216.45 138.382 211.815 138.382 205.2C138.382 198.585 142.972 193.95 149.317 193.95C155.257 193.95 159.577 198.225 159.577 204.57C159.577 205.425 159.532 206.19 159.397 206.91H141.847C142.522 210.825 145.492 213.21 149.632 213.21C152.467 213.21 155.167 211.815 156.382 209.7ZM206.027 197.505H197.612V203.4H205.982C207.782 203.4 208.952 202.14 208.952 200.385C208.952 198.54 207.782 197.505 206.027 197.505ZM206.567 206.46H197.612V212.895H206.072C208.412 212.895 210.212 211.86 210.212 209.655C210.212 207.675 208.907 206.46 206.567 206.46ZM206.882 216H194.012V194.4H206.747C210.122 194.4 212.687 196.56 212.687 199.845C212.687 202.14 211.652 203.805 209.582 204.795C212.507 205.38 213.947 207.045 213.947 209.7C213.947 213.705 211.067 216 206.882 216ZM234.764 198.9C230.849 195.345 222.974 197.595 222.749 203.625H236.969C236.744 201.645 235.979 200.07 234.764 198.9ZM237.329 209.7L240.164 211.455C238.319 214.65 234.719 216.45 230.534 216.45C224.144 216.45 219.329 211.815 219.329 205.2C219.329 198.585 223.919 193.95 230.264 193.95C236.204 193.95 240.524 198.225 240.524 204.57C240.524 205.425 240.479 206.19 240.344 206.91H222.794C223.469 210.825 226.439 213.21 230.579 213.21C233.414 213.21 236.114 211.815 237.329 209.7ZM267.102 194.4V212.67H270.567V220.5H267.102V216H245.862V194.4H249.192V212.67H254.817V194.4H258.147V212.67H263.772V194.4H267.102ZM292.959 216H289.539V196.2L280.179 216H274.689V194.4H278.109V212.715L286.884 194.4H292.959V216Z" fill="black"/>
<path d="M26.645 273.195L23.315 274.725C22.55 269.46 19.4 266.22 15.305 266.22C10.445 266.22 7.16 270.765 7.16 277.695C7.16 284.76 10.445 289.53 15.305 289.53C19.22 289.53 22.28 286.56 23.135 281.88L26.285 283.995C24.71 289.575 20.66 292.95 15.305 292.95C8.24 292.95 3.56 286.83 3.56 277.695C3.56 268.74 8.24 262.8 15.305 262.8C21.02 262.8 25.34 266.76 26.645 273.195ZM49.7574 292.5H46.1574V274.23H35.7624V292.5H32.1624V270.9H49.7574V292.5ZM67.9198 292.95C61.7548 292.95 57.1648 288.315 57.1648 281.7C57.1648 275.13 61.7548 270.45 67.9198 270.45C74.0848 270.45 78.7198 275.13 78.7198 281.7C78.7198 288.315 74.1748 292.95 67.9198 292.95ZM62.8798 287.19C65.5798 290.16 70.3498 290.16 73.0498 287.19C75.7048 284.31 75.6598 279.135 73.0498 276.165C70.3048 273.285 65.6248 273.285 62.8798 276.165C60.2248 279.18 60.1798 284.265 62.8798 287.19ZM91.3023 287.46C93.7773 290.43 97.8723 290.52 100.302 287.46C101.517 285.975 102.147 284.085 102.147 281.7C102.147 279.315 101.517 277.38 100.302 275.895C97.8273 272.925 93.8223 273.015 91.3023 275.895C90.0873 277.38 89.4573 279.315 89.4573 281.7C89.4573 284.085 90.0873 285.975 91.3023 287.46ZM89.9073 292.5V301.05H86.3073C86.3523 298.035 86.3523 293.04 86.3523 285.975C86.3523 278.91 86.3523 273.915 86.3073 270.9H89.9073C89.9073 272.16 89.8623 273.105 89.8173 273.78C91.5723 271.575 93.8673 270.45 96.6573 270.45C101.922 270.45 105.837 274.77 105.837 281.7C105.837 288.585 101.922 292.95 96.6573 292.95C93.8223 292.95 91.5723 291.825 89.8173 289.575C89.8623 290.52 89.9073 291.51 89.9073 292.5ZM133.675 270.9V274.23H123.73V292.5H120.13V274.23H110.185V270.9H133.675ZM158.047 292.5H154.627V272.7L145.267 292.5H139.777V270.9H143.197V289.215L151.972 270.9H158.047V292.5ZM179.045 274.005H170.63V279.9H179C180.8 279.9 181.97 278.64 181.97 276.885C181.97 275.04 180.8 274.005 179.045 274.005ZM179.585 282.96H170.63V289.395H179.09C181.43 289.395 183.23 288.36 183.23 286.155C183.23 284.175 181.925 282.96 179.585 282.96ZM179.9 292.5H167.03V270.9H179.765C183.14 270.9 185.705 273.06 185.705 276.345C185.705 278.64 184.67 280.305 182.6 281.295C185.525 281.88 186.965 283.545 186.965 286.2C186.965 290.205 184.085 292.5 179.9 292.5ZM212.102 292.5H208.502V283.14H197.162V292.5H193.562V270.9H197.162V279.81H208.502V270.9H212.102V292.5ZM237.959 292.95C235.574 292.95 233.684 291.6 233.279 289.665C231.389 291.87 229.004 292.95 226.079 292.95C221.939 292.95 219.239 290.7 219.239 287.325C219.239 283.86 221.804 281.565 226.124 280.665C227.519 280.35 229.859 280.035 233.189 279.675V278.055C233.189 275.58 231.074 273.735 228.149 273.735C225.314 273.735 223.289 275.13 223.289 276.975C223.289 277.2 223.334 277.38 223.379 277.56L220.004 278.235C219.869 277.875 219.824 277.425 219.824 276.885C219.824 273.195 223.424 270.45 228.419 270.45C233.234 270.45 236.789 273.465 236.789 277.605V288.225C236.789 289.125 237.419 289.8 238.319 289.8C239.534 289.8 240.389 288.225 240.389 286.11L243.449 286.83C243.449 290.34 241.064 292.95 237.959 292.95ZM226.484 289.845C229.139 289.845 231.614 288.54 233.189 286.38V282.42C229.904 282.825 227.519 283.23 226.034 283.635C224.099 284.175 222.974 285.48 222.974 286.92C222.974 288.675 224.369 289.845 226.484 289.845ZM256.977 280.845H264.312V273.96H257.472C255.132 273.96 253.332 275.04 253.332 277.425C253.332 279.72 254.862 280.845 256.977 280.845ZM267.912 292.455H264.312V283.95H257.247L251.847 292.5H247.617L253.647 283.455C250.947 282.375 249.597 280.35 249.597 277.38C249.597 273.24 252.477 270.855 256.662 270.855H267.912V292.455Z" fill="black"/>
<path d="M23.765 369H20.165V343.08H7.835V369H4.235V339.75H23.765V369ZM52.2324 347.4L38.7774 377.55H34.9074L39.0924 368.505L29.6874 347.4H33.8724L41.0724 364.05L48.4524 347.4H52.2324ZM79.7998 369H74.8048L67.6948 360.225L60.5848 369H55.9498L65.3998 357.345L57.3448 347.4H62.1598L68.2798 354.915L74.3998 347.4H78.9898L70.5748 357.705L79.7998 369Z" fill="black"/>
<path d="M24.8 445.5H3.2V416.25H6.665V442.17H12.245V416.25H15.71V442.17H21.335V416.25H24.8V445.5ZM47.7774 420.615C46.1574 420.615 44.8524 419.265 44.8524 417.645C44.8524 415.98 46.1574 414.675 47.7774 414.675C49.4424 414.675 50.7474 415.98 50.7474 417.645C50.7474 419.265 49.4424 420.615 47.7774 420.615ZM34.9524 420.615C33.3324 420.615 32.0274 419.265 32.0274 417.645C32.0274 415.98 33.3324 414.675 34.9524 414.675C36.6174 414.675 37.9224 415.98 37.9224 417.645C37.9224 419.265 36.6174 420.615 34.9524 420.615ZM45.8874 428.4C41.9724 424.845 34.0974 427.095 33.8724 433.125H48.0924C47.8674 431.145 47.1024 429.57 45.8874 428.4ZM48.4524 439.2L51.2874 440.955C49.4424 444.15 45.8424 445.95 41.6574 445.95C35.2674 445.95 30.4524 441.315 30.4524 434.7C30.4524 428.085 35.0424 423.45 41.3874 423.45C47.3274 423.45 51.6474 427.725 51.6474 434.07C51.6474 434.925 51.6024 435.69 51.4674 436.41H33.9174C34.5924 440.325 37.5624 442.71 41.7024 442.71C44.5374 442.71 47.2374 441.315 48.4524 439.2ZM77.3248 445.5H73.7248V427.23H65.4448C65.4448 434.295 65.2648 437.895 64.3198 440.82C63.5098 443.79 62.1598 445.005 59.5948 446.175L58.0648 442.71C59.5498 441.855 60.6748 441.135 61.0798 439.11C61.4398 437.58 61.6198 436.635 61.7548 433.71C61.7548 430.785 61.8448 428.715 61.8448 423.9H77.3248V445.5ZM107.187 445.5H102.147L93.7323 436.32H89.8173C89.8173 441.495 89.8173 444.555 89.8623 445.5H86.2623C86.3073 443.34 86.3073 439.74 86.3073 434.7C86.3073 429.66 86.3073 426.06 86.2623 423.9H89.8623C89.8173 425.745 89.8173 428.76 89.8173 432.99H93.8223L101.967 423.9H106.467L97.0623 434.385L107.187 445.5Z" fill="black"/>
<path d="M12.875 522.45C8.375 522.45 4.235 520.335 2.21 517.23L5.315 514.98C6.755 517.365 9.95 518.985 13.325 518.985C17.24 518.985 19.85 516.87 19.85 513.675C19.85 510.615 17.105 508.59 12.965 508.59H9.005V505.53H12.83C16.295 505.53 18.59 503.55 18.59 500.625C18.59 497.7 16.295 495.72 12.83 495.72C10.265 495.72 7.655 497.025 6.395 498.96L4.055 496.53C5.72 493.965 9.32 492.3 13.055 492.3C18.68 492.3 22.325 495.405 22.325 500.085C22.325 503.28 20.975 505.575 18.32 506.925C21.605 508.05 23.585 510.57 23.585 513.855C23.585 518.985 19.31 522.45 12.875 522.45ZM49.0824 522.45C46.6974 522.45 44.8074 521.1 44.4024 519.165C42.5124 521.37 40.1274 522.45 37.2024 522.45C33.0624 522.45 30.3624 520.2 30.3624 516.825C30.3624 513.36 32.9274 511.065 37.2474 510.165C38.6424 509.85 40.9824 509.535 44.3124 509.175V507.555C44.3124 505.08 42.1974 503.235 39.2724 503.235C36.4374 503.235 34.4124 504.63 34.4124 506.475C34.4124 506.7 34.4574 506.88 34.5024 507.06L31.1274 507.735C30.9924 507.375 30.9474 506.925 30.9474 506.385C30.9474 502.695 34.5474 499.95 39.5424 499.95C44.3574 499.95 47.9124 502.965 47.9124 507.105V517.725C47.9124 518.625 48.5424 519.3 49.4424 519.3C50.6574 519.3 51.5124 517.725 51.5124 515.61L54.5724 516.33C54.5724 519.84 52.1874 522.45 49.0824 522.45ZM37.6074 519.345C40.2624 519.345 42.7374 518.04 44.3124 515.88V511.92C41.0274 512.325 38.6424 512.73 37.1574 513.135C35.2224 513.675 34.0974 514.98 34.0974 516.42C34.0974 518.175 35.4924 519.345 37.6074 519.345ZM70.7098 515.475H65.1298L60.6298 502.155V522H57.3898V500.4H63.7798L68.0998 513.405L72.2848 500.4H78.6298V522H75.3898V502.2L70.7098 515.475ZM103.047 522.45C100.662 522.45 98.7723 521.1 98.3673 519.165C96.4773 521.37 94.0923 522.45 91.1673 522.45C87.0273 522.45 84.3273 520.2 84.3273 516.825C84.3273 513.36 86.8923 511.065 91.2123 510.165C92.6073 509.85 94.9473 509.535 98.2773 509.175V507.555C98.2773 505.08 96.1623 503.235 93.2373 503.235C90.4023 503.235 88.3773 504.63 88.3773 506.475C88.3773 506.7 88.4223 506.88 88.4673 507.06L85.0923 507.735C84.9573 507.375 84.9123 506.925 84.9123 506.385C84.9123 502.695 88.5123 499.95 93.5073 499.95C98.3223 499.95 101.877 502.965 101.877 507.105V517.725C101.877 518.625 102.507 519.3 103.407 519.3C104.622 519.3 105.477 517.725 105.477 515.61L108.537 516.33C108.537 519.84 106.152 522.45 103.047 522.45ZM91.5723 519.345C94.2273 519.345 96.7023 518.04 98.2773 515.88V511.92C94.9923 512.325 92.6073 512.73 91.1223 513.135C89.1873 513.675 88.0623 514.98 88.0623 516.42C88.0623 518.175 89.4573 519.345 91.5723 519.345ZM129.895 500.4V522H126.295V513.405C124.765 513.9 123.055 514.17 121.21 514.17C115.675 514.17 111.67 511.605 111.67 505.98V500.4H115.405V505.755C115.405 509.13 117.52 510.795 121.75 510.795C123.505 510.795 125.035 510.57 126.295 510.12V500.4H129.895ZM158.047 522H154.627V502.2L145.267 522H139.777V500.4H143.197V518.715L151.972 500.4H158.047V522ZM179.045 503.505H170.63V509.4H179C180.8 509.4 181.97 508.14 181.97 506.385C181.97 504.54 180.8 503.505 179.045 503.505ZM179.585 512.46H170.63V518.895H179.09C181.43 518.895 183.23 517.86 183.23 515.655C183.23 513.675 181.925 512.46 179.585 512.46ZM179.9 522H167.03V500.4H179.765C183.14 500.4 185.705 502.56 185.705 505.845C185.705 508.14 184.67 509.805 182.6 510.795C185.525 511.38 186.965 513.045 186.965 515.7C186.965 519.705 184.085 522 179.9 522ZM210.977 522.45C208.592 522.45 206.702 521.1 206.297 519.165C204.407 521.37 202.022 522.45 199.097 522.45C194.957 522.45 192.257 520.2 192.257 516.825C192.257 513.36 194.822 511.065 199.142 510.165C200.537 509.85 202.877 509.535 206.207 509.175V507.555C206.207 505.08 204.092 503.235 201.167 503.235C198.332 503.235 196.307 504.63 196.307 506.475C196.307 506.7 196.352 506.88 196.397 507.06L193.022 507.735C192.887 507.375 192.842 506.925 192.842 506.385C192.842 502.695 196.442 499.95 201.437 499.95C206.252 499.95 209.807 502.965 209.807 507.105V517.725C209.807 518.625 210.437 519.3 211.337 519.3C212.552 519.3 213.407 517.725 213.407 515.61L216.467 516.33C216.467 519.84 214.082 522.45 210.977 522.45ZM199.502 519.345C202.157 519.345 204.632 518.04 206.207 515.88V511.92C202.922 512.325 200.537 512.73 199.052 513.135C197.117 513.675 195.992 514.98 195.992 516.42C195.992 518.175 197.387 519.345 199.502 519.345ZM239.084 522H235.484V512.64H224.144V522H220.544V500.4H224.144V509.31H235.484V500.4H239.084V522ZM265.977 522H262.557V502.2L253.197 522H247.707V500.4H251.127V518.715L259.902 500.4H265.977V522ZM288.729 504.9C284.814 501.345 276.939 503.595 276.714 509.625H290.934C290.709 507.645 289.944 506.07 288.729 504.9ZM291.294 515.7L294.129 517.455C292.284 520.65 288.684 522.45 284.499 522.45C278.109 522.45 273.294 517.815 273.294 511.2C273.294 504.585 277.884 499.95 284.229 499.95C290.169 499.95 294.489 504.225 294.489 510.57C294.489 511.425 294.444 512.19 294.309 512.91H276.759C277.434 516.825 280.404 519.21 284.544 519.21C287.379 519.21 290.079 517.815 291.294 515.7Z" fill="black"/>
<path d="M1035.86 110.25V136.17H1039.33V144.9H1035.86V139.5H1016.33V110.25H1019.93V136.17H1032.26V110.25H1035.86ZM1056.63 121.005H1048.22V126.9H1056.59C1058.39 126.9 1059.56 125.64 1059.56 123.885C1059.56 122.04 1058.39 121.005 1056.63 121.005ZM1057.17 129.96H1048.22V136.395H1056.68C1059.02 136.395 1060.82 135.36 1060.82 133.155C1060.82 131.175 1059.51 129.96 1057.17 129.96ZM1057.49 139.5H1044.62V117.9H1057.35C1060.73 117.9 1063.29 120.06 1063.29 123.345C1063.29 125.64 1062.26 127.305 1060.19 128.295C1063.11 128.88 1064.55 130.545 1064.55 133.2C1064.55 137.205 1061.67 139.5 1057.49 139.5ZM1085.37 122.4C1081.45 118.845 1073.58 121.095 1073.35 127.125H1087.57C1087.35 125.145 1086.58 123.57 1085.37 122.4ZM1087.93 133.2L1090.77 134.955C1088.92 138.15 1085.32 139.95 1081.14 139.95C1074.75 139.95 1069.93 135.315 1069.93 128.7C1069.93 122.085 1074.52 117.45 1080.87 117.45C1086.81 117.45 1091.13 121.725 1091.13 128.07C1091.13 128.925 1091.08 129.69 1090.95 130.41H1073.4C1074.07 134.325 1077.04 136.71 1081.18 136.71C1084.02 136.71 1086.72 135.315 1087.93 133.2ZM1119.19 117.9V121.23H1109.25V139.5H1105.65V121.23H1095.7V117.9H1119.19ZM1143.65 139.5H1140.05V130.14H1128.71V139.5H1125.11V117.9H1128.71V126.81H1140.05V117.9H1143.65V139.5ZM1161.37 139.95C1155.2 139.95 1150.61 135.315 1150.61 128.7C1150.61 122.13 1155.2 117.45 1161.37 117.45C1167.53 117.45 1172.17 122.13 1172.17 128.7C1172.17 135.315 1167.62 139.95 1161.37 139.95ZM1156.33 134.19C1159.03 137.16 1163.8 137.16 1166.5 134.19C1169.15 131.31 1169.11 126.135 1166.5 123.165C1163.75 120.285 1159.07 120.285 1156.33 123.165C1153.67 126.18 1153.63 131.265 1156.33 134.19ZM1190.96 108.9H1193.97C1193.97 112.14 1191.36 114.705 1188.12 114.705C1184.97 114.705 1182.27 112.14 1182.27 108.9H1185.29C1185.29 112.59 1190.96 112.59 1190.96 108.9ZM1197.53 139.5H1194.11V119.7L1184.75 139.5H1179.26V117.9H1182.68V136.215L1191.45 117.9H1197.53V139.5Z" fill="black"/>
<path d="M985.145 196.695L981.815 198.225C981.05 192.96 977.9 189.72 973.805 189.72C968.945 189.72 965.66 194.265 965.66 201.195C965.66 208.26 968.945 213.03 973.805 213.03C977.72 213.03 980.78 210.06 981.635 205.38L984.785 207.495C983.21 213.075 979.16 216.45 973.805 216.45C966.74 216.45 962.06 210.33 962.06 201.195C962.06 192.24 966.74 186.3 973.805 186.3C979.52 186.3 983.84 190.26 985.145 196.695ZM1008.62 216H1005.2V196.2L995.837 216H990.347V194.4H993.767V212.715L1002.54 194.4H1008.62V216ZM1035.69 216H1032.09V206.64H1020.75V216H1017.15V194.4H1020.75V203.31H1032.09V194.4H1035.69V216ZM1065.19 194.4V197.73H1055.25V216H1051.65V197.73H1041.7V194.4H1065.19ZM1085.33 198.9C1081.42 195.345 1073.54 197.595 1073.32 203.625H1087.54C1087.31 201.645 1086.55 200.07 1085.33 198.9ZM1087.9 209.7L1090.73 211.455C1088.89 214.65 1085.29 216.45 1081.1 216.45C1074.71 216.45 1069.9 211.815 1069.9 205.2C1069.9 198.585 1074.49 193.95 1080.83 193.95C1086.77 193.95 1091.09 198.225 1091.09 204.57C1091.09 205.425 1091.05 206.19 1090.91 206.91H1073.36C1074.04 210.825 1077.01 213.21 1081.15 213.21C1083.98 213.21 1086.68 211.815 1087.9 209.7ZM1119.16 194.4V197.73H1109.21V216H1105.61V197.73H1095.67V194.4H1119.16ZM1143.53 216H1140.11V196.2L1130.75 216H1125.26V194.4H1128.68V212.715L1137.45 194.4H1143.53V216ZM1173.62 216H1168.58L1160.16 206.82H1156.25C1156.25 211.995 1156.25 215.055 1156.29 216H1152.69C1152.74 213.84 1152.74 210.24 1152.74 205.2C1152.74 200.16 1152.74 196.56 1152.69 194.4H1156.29C1156.25 196.245 1156.25 199.26 1156.25 203.49H1160.25L1168.4 194.4H1172.9L1163.49 204.885L1173.62 216ZM1196.46 216.45C1194.07 216.45 1192.18 215.1 1191.78 213.165C1189.89 215.37 1187.5 216.45 1184.58 216.45C1180.44 216.45 1177.74 214.2 1177.74 210.825C1177.74 207.36 1180.3 205.065 1184.62 204.165C1186.02 203.85 1188.36 203.535 1191.69 203.175V201.555C1191.69 199.08 1189.57 197.235 1186.65 197.235C1183.81 197.235 1181.79 198.63 1181.79 200.475C1181.79 200.7 1181.83 200.88 1181.88 201.06L1178.5 201.735C1178.37 201.375 1178.32 200.925 1178.32 200.385C1178.32 196.695 1181.92 193.95 1186.92 193.95C1191.73 193.95 1195.29 196.965 1195.29 201.105V211.725C1195.29 212.625 1195.92 213.3 1196.82 213.3C1198.03 213.3 1198.89 211.725 1198.89 209.61L1201.95 210.33C1201.95 213.84 1199.56 216.45 1196.46 216.45ZM1184.98 213.345C1187.64 213.345 1190.11 212.04 1191.69 209.88V205.92C1188.4 206.325 1186.02 206.73 1184.53 207.135C1182.6 207.675 1181.47 208.98 1181.47 210.42C1181.47 212.175 1182.87 213.345 1184.98 213.345Z" fill="black"/>
<path d="M985.145 273.195L981.815 274.725C981.05 269.46 977.9 266.22 973.805 266.22C968.945 266.22 965.66 270.765 965.66 277.695C965.66 284.76 968.945 289.53 973.805 289.53C977.72 289.53 980.78 286.56 981.635 281.88L984.785 283.995C983.21 289.575 979.16 292.95 973.805 292.95C966.74 292.95 962.06 286.83 962.06 277.695C962.06 268.74 966.74 262.8 973.805 262.8C979.52 262.8 983.84 266.76 985.145 273.195ZM1002.23 285.975H996.647L992.147 272.655V292.5H988.907V270.9H995.297L999.617 283.905L1003.8 270.9H1010.15V292.5H1006.91V272.7L1002.23 285.975ZM1031.37 275.4C1027.45 271.845 1019.58 274.095 1019.35 280.125H1033.57C1033.35 278.145 1032.58 276.57 1031.37 275.4ZM1033.93 286.2L1036.77 287.955C1034.92 291.15 1031.32 292.95 1027.14 292.95C1020.75 292.95 1015.93 288.315 1015.93 281.7C1015.93 275.085 1020.52 270.45 1026.87 270.45C1032.81 270.45 1037.13 274.725 1037.13 281.07C1037.13 281.925 1037.08 282.69 1036.95 283.41H1019.4C1020.07 287.325 1023.04 289.71 1027.18 289.71C1030.02 289.71 1032.72 288.315 1033.93 286.2ZM1064.11 292.5H1042.87V270.9H1046.2V289.17H1051.83V270.9H1055.16V289.17H1060.78V270.9H1064.11V292.5ZM1088.53 292.95C1086.14 292.95 1084.25 291.6 1083.85 289.665C1081.96 291.87 1079.57 292.95 1076.65 292.95C1072.51 292.95 1069.81 290.7 1069.81 287.325C1069.81 283.86 1072.37 281.565 1076.69 280.665C1078.09 280.35 1080.43 280.035 1083.76 279.675V278.055C1083.76 275.58 1081.64 273.735 1078.72 273.735C1075.88 273.735 1073.86 275.13 1073.86 276.975C1073.86 277.2 1073.9 277.38 1073.95 277.56L1070.57 278.235C1070.44 277.875 1070.39 277.425 1070.39 276.885C1070.39 273.195 1073.99 270.45 1078.99 270.45C1083.8 270.45 1087.36 273.465 1087.36 277.605V288.225C1087.36 289.125 1087.99 289.8 1088.89 289.8C1090.1 289.8 1090.96 288.225 1090.96 286.11L1094.02 286.83C1094.02 290.34 1091.63 292.95 1088.53 292.95ZM1077.05 289.845C1079.71 289.845 1082.18 288.54 1083.76 286.38V282.42C1080.47 282.825 1078.09 283.23 1076.6 283.635C1074.67 284.175 1073.54 285.48 1073.54 286.92C1073.54 288.675 1074.94 289.845 1077.05 289.845ZM1116.64 292.5H1113.04V283.14H1101.7V292.5H1098.1V270.9H1101.7V279.81H1113.04V270.9H1116.64V292.5ZM1143.62 292.5H1140.02V283.14H1128.68V292.5H1125.08V270.9H1128.68V279.81H1140.02V270.9H1143.62V292.5ZM1171.32 292.5H1167.72C1167.77 290.34 1167.77 286.74 1167.77 281.7C1167.77 276.66 1167.77 273.06 1167.72 270.9H1171.32C1171.28 273.06 1171.28 276.66 1171.28 281.7C1171.28 287.82 1171.28 291.42 1171.32 292.5ZM1156.61 281.16H1154.85V289.845H1155.66C1158.23 289.845 1160.25 288.54 1160.25 285.48C1160.25 282.6 1158.72 281.16 1156.61 281.16ZM1156.92 292.5H1151.34V270.9H1154.85V278.505H1157.1C1160.7 278.505 1163.99 280.755 1163.99 285.525C1163.99 289.89 1161.11 292.5 1156.92 292.5ZM1193.26 275.4C1189.35 271.845 1181.47 274.095 1181.25 280.125H1195.47C1195.24 278.145 1194.48 276.57 1193.26 275.4ZM1195.83 286.2L1198.66 287.955C1196.82 291.15 1193.22 292.95 1189.03 292.95C1182.64 292.95 1177.83 288.315 1177.83 281.7C1177.83 275.085 1182.42 270.45 1188.76 270.45C1194.7 270.45 1199.02 274.725 1199.02 281.07C1199.02 281.925 1198.98 282.69 1198.84 283.41H1181.29C1181.97 287.325 1184.94 289.71 1189.08 289.71C1191.91 289.71 1194.61 288.315 1195.83 286.2Z" fill="black"/>
<path d="M1064.41 369H1042.81V339.75H1046.27V365.67H1051.85V339.75H1055.32V365.67H1060.94V339.75H1064.41V369ZM1085.49 351.9C1081.58 348.345 1073.7 350.595 1073.48 356.625H1087.7C1087.47 354.645 1086.71 353.07 1085.49 351.9ZM1088.06 362.7L1090.89 364.455C1089.05 367.65 1085.45 369.45 1081.26 369.45C1074.87 369.45 1070.06 364.815 1070.06 358.2C1070.06 351.585 1074.65 346.95 1080.99 346.95C1086.93 346.95 1091.25 351.225 1091.25 357.57C1091.25 358.425 1091.21 359.19 1091.07 359.91H1073.52C1074.2 363.825 1077.17 366.21 1081.31 366.21C1084.14 366.21 1086.84 364.815 1088.06 362.7ZM1103.93 363.96C1106.4 366.93 1110.5 367.02 1112.93 363.96C1114.14 362.475 1114.77 360.585 1114.77 358.2C1114.77 355.815 1114.14 353.88 1112.93 352.395C1110.45 349.425 1106.45 349.515 1103.93 352.395C1102.71 353.88 1102.08 355.815 1102.08 358.2C1102.08 360.585 1102.71 362.475 1103.93 363.96ZM1102.53 369V377.55H1098.93C1098.98 374.535 1098.98 369.54 1098.98 362.475C1098.98 355.41 1098.98 350.415 1098.93 347.4H1102.53C1102.53 348.66 1102.49 349.605 1102.44 350.28C1104.2 348.075 1106.49 346.95 1109.28 346.95C1114.55 346.95 1118.46 351.27 1118.46 358.2C1118.46 365.085 1114.55 369.45 1109.28 369.45C1106.45 369.45 1104.2 368.325 1102.44 366.075C1102.49 367.02 1102.53 368.01 1102.53 369ZM1142.07 361.305L1145.35 362.79C1143.78 366.885 1139.95 369.45 1135.41 369.45C1129.24 369.45 1124.65 364.815 1124.65 358.2C1124.65 351.63 1129.24 346.95 1135.41 346.95C1140.54 346.95 1144.63 350.1 1145.8 355.005L1142.47 356.085C1141.71 352.71 1138.92 350.505 1135.45 350.505C1131.27 350.505 1128.16 353.745 1128.16 358.2C1128.16 362.655 1131.27 365.895 1135.45 365.895C1138.47 365.895 1140.99 364.14 1142.07 361.305ZM1173.28 347.4V350.73H1163.34V369H1159.74V350.73H1149.79V347.4H1173.28ZM1191.53 359.01H1184.2V365.895H1191.04C1193.38 365.895 1195.18 364.815 1195.18 362.43C1195.18 360.135 1193.65 359.01 1191.53 359.01ZM1191.85 369H1180.6V347.4H1184.2V355.905H1192.03C1195.58 355.905 1198.91 358.02 1198.91 362.475C1198.91 366.615 1196.03 369 1191.85 369Z" fill="black"/>
<path d="M838.826 431.775H833.066V442.395H839.456C842.741 442.395 845.351 440.775 845.351 436.995C845.351 433.44 842.741 431.775 838.826 431.775ZM840.266 445.5H829.466V416.25H847.061V419.58H833.066V428.67H839.411C844.811 428.67 849.086 431.19 849.086 436.77C849.086 442.395 845.621 445.5 840.266 445.5ZM874.674 445.5H871.074C871.119 443.34 871.119 439.74 871.119 434.7C871.119 429.66 871.119 426.06 871.074 423.9H874.674C874.629 426.06 874.629 429.66 874.629 434.7C874.629 440.82 874.629 444.42 874.674 445.5ZM859.959 434.16H858.204V442.845H859.014C861.579 442.845 863.604 441.54 863.604 438.48C863.604 435.6 862.074 434.16 859.959 434.16ZM860.274 445.5H854.694V423.9H858.204V431.505H860.454C864.054 431.505 867.339 433.755 867.339 438.525C867.339 442.89 864.459 445.5 860.274 445.5ZM899.226 437.805L902.511 439.29C900.936 443.385 897.111 445.95 892.566 445.95C886.401 445.95 881.811 441.315 881.811 434.7C881.811 428.13 886.401 423.45 892.566 423.45C897.696 423.45 901.791 426.6 902.961 431.505L899.631 432.585C898.866 429.21 896.076 427.005 892.611 427.005C888.426 427.005 885.321 430.245 885.321 434.7C885.321 439.155 888.426 442.395 892.611 442.395C895.626 442.395 898.146 440.64 899.226 437.805ZM930.438 423.9V427.23H920.493V445.5H916.893V427.23H906.948V423.9H930.438ZM942.031 440.46C944.506 443.43 948.601 443.52 951.031 440.46C952.246 438.975 952.876 437.085 952.876 434.7C952.876 432.315 952.246 430.38 951.031 428.895C948.556 425.925 944.551 426.015 942.031 428.895C940.816 430.38 940.186 432.315 940.186 434.7C940.186 437.085 940.816 438.975 942.031 440.46ZM940.636 445.5V454.05H937.036C937.081 451.035 937.081 446.04 937.081 438.975C937.081 431.91 937.081 426.915 937.036 423.9H940.636C940.636 425.16 940.591 426.105 940.546 426.78C942.301 424.575 944.596 423.45 947.386 423.45C952.651 423.45 956.566 427.77 956.566 434.7C956.566 441.585 952.651 445.95 947.386 445.95C944.551 445.95 942.301 444.825 940.546 442.575C940.591 443.52 940.636 444.51 940.636 445.5ZM980.758 445.95C978.373 445.95 976.483 444.6 976.078 442.665C974.188 444.87 971.803 445.95 968.878 445.95C964.738 445.95 962.038 443.7 962.038 440.325C962.038 436.86 964.603 434.565 968.923 433.665C970.318 433.35 972.658 433.035 975.988 432.675V431.055C975.988 428.58 973.873 426.735 970.948 426.735C968.113 426.735 966.088 428.13 966.088 429.975C966.088 430.2 966.133 430.38 966.178 430.56L962.803 431.235C962.668 430.875 962.623 430.425 962.623 429.885C962.623 426.195 966.223 423.45 971.218 423.45C976.033 423.45 979.588 426.465 979.588 430.605V441.225C979.588 442.125 980.218 442.8 981.118 442.8C982.333 442.8 983.188 441.225 983.188 439.11L986.248 439.83C986.248 443.34 983.863 445.95 980.758 445.95ZM969.283 442.845C971.938 442.845 974.413 441.54 975.988 439.38V435.42C972.703 435.825 970.318 436.23 968.833 436.635C966.898 437.175 965.773 438.48 965.773 439.92C965.773 441.675 967.168 442.845 969.283 442.845ZM999.776 433.845H1007.11V426.96H1000.27C997.931 426.96 996.131 428.04 996.131 430.425C996.131 432.72 997.661 433.845 999.776 433.845ZM1010.71 445.455H1007.11V436.95H1000.05L994.646 445.5H990.416L996.446 436.455C993.746 435.375 992.396 433.35 992.396 430.38C992.396 426.24 995.276 423.855 999.461 423.855H1010.71V445.455ZM1064.86 442.17V445.5H1044.16V442.17H1053.61V420.075L1046.32 424.35L1043.93 421.92L1053.61 416.25H1057.21V442.17H1064.86ZM1074.42 445.95C1072.67 445.95 1071.32 445.77 1070.33 445.455L1071.68 442.08C1072.44 442.305 1073.3 442.44 1074.2 442.44C1079.91 442.44 1085.76 441.225 1085.76 434.565C1085.76 431.145 1084.05 428.895 1080.86 428.895C1078.52 428.895 1075.95 430.29 1075.01 431.73H1071.68L1072.94 416.25H1090.67V419.58H1076L1075.28 428.4C1076.94 426.645 1079.1 425.79 1081.76 425.79C1086.08 425.79 1089.41 428.625 1089.41 433.8C1089.41 441.945 1083.24 445.95 1074.42 445.95ZM1137.3 438.975H1131.72L1127.22 425.655V445.5H1123.98V423.9H1130.37L1134.69 436.905L1138.87 423.9H1145.22V445.5H1141.98V425.7L1137.3 438.975ZM1170.67 445.5H1167.25V425.7L1157.89 445.5H1152.4V423.9H1155.82V442.215L1164.6 423.9H1170.67V445.5ZM1197.74 445.5H1194.14V436.14H1182.8V445.5H1179.2V423.9H1182.8V432.81H1194.14V423.9H1197.74V445.5Z" fill="black"/>
<path d="M955.441 522H951.841V496.08H939.511V522H935.911V492.75H955.441V522ZM972.613 522.45C966.448 522.45 961.858 517.815 961.858 511.2C961.858 504.63 966.448 499.95 972.613 499.95C978.778 499.95 983.413 504.63 983.413 511.2C983.413 517.815 978.868 522.45 972.613 522.45ZM967.573 516.69C970.273 519.66 975.043 519.66 977.743 516.69C980.398 513.81 980.353 508.635 977.743 505.665C974.998 502.785 970.318 502.785 967.573 505.665C964.918 508.68 964.873 513.765 967.573 516.69ZM1009 522H1005.4V503.73H997.121C997.121 510.795 996.941 514.395 995.996 517.32C995.186 520.29 993.836 521.505 991.271 522.675L989.741 519.21C991.226 518.355 992.351 517.635 992.756 515.61C993.116 514.08 993.296 513.135 993.431 510.21C993.431 507.285 993.521 505.215 993.521 500.4H1009V522ZM1026.58 522.45C1020.41 522.45 1015.82 517.815 1015.82 511.2C1015.82 504.63 1020.41 499.95 1026.58 499.95C1032.74 499.95 1037.38 504.63 1037.38 511.2C1037.38 517.815 1032.83 522.45 1026.58 522.45ZM1021.54 516.69C1024.24 519.66 1029.01 519.66 1031.71 516.69C1034.36 513.81 1034.32 508.635 1031.71 505.665C1028.96 502.785 1024.28 502.785 1021.54 505.665C1018.88 508.68 1018.84 513.765 1021.54 516.69ZM1061.12 514.305L1064.41 515.79C1062.83 519.885 1059.01 522.45 1054.46 522.45C1048.3 522.45 1043.71 517.815 1043.71 511.2C1043.71 504.63 1048.3 499.95 1054.46 499.95C1059.59 499.95 1063.69 503.1 1064.86 508.005L1061.53 509.085C1060.76 505.71 1057.97 503.505 1054.51 503.505C1050.32 503.505 1047.22 506.745 1047.22 511.2C1047.22 515.655 1050.32 518.895 1054.51 518.895C1057.52 518.895 1060.04 517.14 1061.12 514.305ZM1092.83 522H1087.79L1079.37 512.82H1075.46C1075.46 517.995 1075.46 521.055 1075.5 522H1071.9C1071.95 519.84 1071.95 516.24 1071.95 511.2C1071.95 506.16 1071.95 502.56 1071.9 500.4H1075.5C1075.46 502.245 1075.46 505.26 1075.46 509.49H1079.46L1087.61 500.4H1092.11L1082.7 510.885L1092.83 522ZM1115.67 522.45C1113.29 522.45 1111.4 521.1 1110.99 519.165C1109.1 521.37 1106.72 522.45 1103.79 522.45C1099.65 522.45 1096.95 520.2 1096.95 516.825C1096.95 513.36 1099.52 511.065 1103.84 510.165C1105.23 509.85 1107.57 509.535 1110.9 509.175V507.555C1110.9 505.08 1108.79 503.235 1105.86 503.235C1103.03 503.235 1101 504.63 1101 506.475C1101 506.7 1101.05 506.88 1101.09 507.06L1097.72 507.735C1097.58 507.375 1097.54 506.925 1097.54 506.385C1097.54 502.695 1101.14 499.95 1106.13 499.95C1110.95 499.95 1114.5 502.965 1114.5 507.105V517.725C1114.5 518.625 1115.13 519.3 1116.03 519.3C1117.25 519.3 1118.1 517.725 1118.1 515.61L1121.16 516.33C1121.16 519.84 1118.78 522.45 1115.67 522.45ZM1104.2 519.345C1106.85 519.345 1109.33 518.04 1110.9 515.88V511.92C1107.62 512.325 1105.23 512.73 1103.75 513.135C1101.81 513.675 1100.69 514.98 1100.69 516.42C1100.69 518.175 1102.08 519.345 1104.2 519.345ZM1143.78 522H1140.18V512.64H1128.84V522H1125.24V500.4H1128.84V509.31H1140.18V500.4H1143.78V522ZM1170.67 522H1167.25V502.2L1157.89 522H1152.4V500.4H1155.82V518.715L1164.6 500.4H1170.67V522ZM1193.42 504.9C1189.51 501.345 1181.63 503.595 1181.41 509.625H1195.63C1195.4 507.645 1194.64 506.07 1193.42 504.9ZM1195.99 515.7L1198.82 517.455C1196.98 520.65 1193.38 522.45 1189.19 522.45C1182.8 522.45 1177.99 517.815 1177.99 511.2C1177.99 504.585 1182.58 499.95 1188.92 499.95C1194.86 499.95 1199.18 504.225 1199.18 510.57C1199.18 511.425 1199.14 512.19 1199 512.91H1181.45C1182.13 516.825 1185.1 519.21 1189.24 519.21C1192.07 519.21 1194.77 517.815 1195.99 515.7Z" fill="black"/>
<mask id="path-17-inside-1_134_214" fill="white">
<path fill-rule="evenodd" clip-rule="evenodd" d="M665.07 122.309L656.672 101.25L634.902 113.327C623.237 110.949 611.162 109.7 598.795 109.7C499.497 109.7 419 190.197 419 289.495C419 388.793 499.497 469.289 598.795 469.289C698.092 469.289 778.589 388.793 778.589 289.495C778.589 213.603 731.568 148.693 665.07 122.309Z"/>
</mask>
<path fill-rule="evenodd" clip-rule="evenodd" d="M665.07 122.309L656.672 101.25L634.902 113.327C623.237 110.949 611.162 109.7 598.795 109.7C499.497 109.7 419 190.197 419 289.495C419 388.793 499.497 469.289 598.795 469.289C698.092 469.289 778.589 388.793 778.589 289.495C778.589 213.603 731.568 148.693 665.07 122.309Z" fill="#D1D5FC"/>
<path d="M656.672 101.25L660.155 99.861L658.577 95.9045L654.853 97.9708L656.672 101.25ZM665.07 122.309L661.587 123.699L662.185 125.199L663.687 125.795L665.07 122.309ZM634.902 113.327L634.153 117.001L635.51 117.278L636.721 116.606L634.902 113.327ZM653.189 102.639L661.587 123.699L668.553 120.92L660.155 99.861L653.189 102.639ZM636.721 116.606L658.491 104.529L654.853 97.9708L633.083 110.048L636.721 116.606ZM598.795 113.45C610.909 113.45 622.733 114.673 634.153 117.001L635.651 109.653C623.741 107.224 611.415 105.95 598.795 105.95V113.45ZM422.75 289.495C422.75 192.268 501.568 113.45 598.795 113.45V105.95C497.426 105.95 415.25 188.126 415.25 289.495H422.75ZM598.795 465.539C501.568 465.539 422.75 386.722 422.75 289.495H415.25C415.25 390.864 497.426 473.039 598.795 473.039V465.539ZM774.839 289.495C774.839 386.722 696.021 465.539 598.795 465.539V473.039C700.163 473.039 782.339 390.864 782.339 289.495H774.839ZM663.687 125.795C728.805 151.631 774.839 215.191 774.839 289.495H782.339C782.339 212.014 734.331 145.755 666.453 118.824L663.687 125.795Z" fill="#172FF2" mask="url(#path-17-inside-1_134_214)"/>
<circle cx="599.129" cy="288.129" r="149.754" fill="white" stroke="#172FF2" stroke-width="3.75"/>
<path d="M561.975 343.362C567.209 351.449 566.261 359.823 561.975 365.587M541.389 371.989C549.715 374.648 557.591 371.482 561.975 365.587M591.971 374.177C608.486 355.982 622.166 333.245 637.26 340.441C647.614 345.376 643.717 354.878 637.26 369.652M637.26 369.652C639.085 373.547 640.904 374.943 644.906 376.663M637.26 369.652C627.887 371.739 620.001 373.105 613.145 373.866M561.975 365.587C578.879 372.219 590.288 376.404 613.145 373.866M613.145 373.866L624.32 357.967" stroke="#172FF2" stroke-width="3.75" stroke-linecap="round"/>
<path d="M602.789 299.377C583.252 298.644 588.172 280.607 605.014 281.838" stroke="#172FF2" stroke-width="3.75"/>
<path fill-rule="evenodd" clip-rule="evenodd" d="M520.475 272.588C518.733 261.069 518.788 248.415 520.628 236.986L540.157 255.276L527.014 215.929C530.973 208.237 535.957 204.28 541.036 204.795C546.116 205.309 550.944 210.261 554.622 218.727C558.299 227.192 560.575 238.594 561.025 250.807C561.437 261.998 560.29 273.171 557.786 282.577C553.897 281.256 549.729 280.54 545.394 280.54C537.428 280.54 530.027 282.958 523.885 287.101C522.434 282.787 521.277 277.891 520.475 272.588Z" fill="#172FF2"/>
<path fill-rule="evenodd" clip-rule="evenodd" d="M638.781 272.588C637.039 261.069 637.093 248.415 638.934 236.986L658.463 255.276L645.32 215.929C649.279 208.237 654.263 204.28 659.342 204.795C664.421 205.309 669.25 210.261 672.927 218.727C676.605 227.192 678.881 238.594 679.33 250.807C679.743 261.998 678.596 273.171 676.091 282.576C672.203 281.256 668.035 280.54 663.7 280.54C655.734 280.54 648.333 282.958 642.191 287.102C640.74 282.787 639.583 277.891 638.781 272.588Z" fill="#172FF2"/>
<path d="M575.313 299.624C571.801 293.614 566.726 288.667 560.628 285.311C554.529 281.955 547.635 280.315 540.678 280.564C533.721 280.814 526.962 282.945 521.12 286.73C515.278 290.515 510.571 295.813 507.5 302.06" stroke="#172FF2" stroke-width="3.75"/>
<path d="M694.851 299.624C691.339 293.614 686.264 288.667 680.166 285.311C674.067 281.955 667.173 280.315 660.216 280.564C653.259 280.814 646.501 282.945 640.658 286.73C634.816 290.515 630.109 295.813 627.038 302.06" stroke="#172FF2" stroke-width="3.75"/>
<line x1="597.125" y1="99" x2="597.125" y2="57" stroke="#172FF2" stroke-width="3.75"/>
<path d="M676.25 105.375L694.25 57H1025.38" stroke="#172FF2" stroke-width="3.75" stroke-linecap="round"/>
<path d="M738.125 146.625L748.25 136.5H1001.75" stroke="#172FF2" stroke-width="3.75" stroke-linecap="round"/>
<path d="M782.75 216H944" stroke="#172FF2" stroke-width="3.75" stroke-linecap="round"/>
<path d="M797.75 291H944" stroke="#172FF2" stroke-width="3.75" stroke-linecap="round"/>
<path d="M784.25 362.25H1030.62" stroke="#172FF2" stroke-width="3.75" stroke-linecap="round"/>
<path d="M739.625 430.5L748.25 438.75H815.75" stroke="#172FF2" stroke-width="3.75" stroke-linecap="round"/>
<path d="M675.125 474.75L693.875 520.875H909.125" stroke="#172FF2" stroke-width="3.75" stroke-linecap="round"/>
<path d="M599.75 489L599.75 521.25" stroke="#172FF2" stroke-width="3.75" stroke-linecap="round"/>
<path d="M522.875 474L503.75 520.5H321.5" stroke="#172FF2" stroke-width="3.75" stroke-linecap="round"/>
<path d="M456.875 430.5L448.25 438.75H135.5" stroke="#172FF2" stroke-width="3.75" stroke-linecap="round"/>
<path d="M413.375 362.25H108.875" stroke="#172FF2" stroke-width="3.75" stroke-linecap="round"/>
<path d="M399.125 291H282.5" stroke="#172FF2" stroke-width="3.75" stroke-linecap="round"/>
<path d="M412.625 216H313.625" stroke="#172FF2" stroke-width="3.75" stroke-linecap="round"/>
<path d="M459.875 150L446.75 136.5H203.75" stroke="#172FF2" stroke-width="3.75" stroke-linecap="round"/>
<path d="M522.875 109.875L500.375 57H289.625" stroke="#172FF2" stroke-width="3.75" stroke-linecap="round"/>
</svg>
