<svg width="67" height="78" viewBox="0 0 67 78" fill="none" xmlns="http://www.w3.org/2000/svg">
<path fill-rule="evenodd" clip-rule="evenodd" d="M22.3652 32.5223C21.9274 33.6813 20.671 34.2483 19.5213 33.8185C19.301 33.7351 19.1009 33.6178 18.925 33.4744C17.9011 34.0445 16.838 34.5483 15.851 34.8426C14.0326 35.3848 11.5017 35.6259 9.24103 35.6225C8.2804 35.6211 7.32853 35.5756 6.45705 35.4806L12.8499 71.7769V74.1589H53.6501V71.7769L60.4235 33.3201C59.512 33.7352 58.5457 34.1035 57.5638 34.397C55.3914 35.0463 52.9189 35.3962 50.7184 34.8707C49.5172 34.5839 47.08 33.9591 45.0462 33.1178C44.1763 33.6109 43.2543 34.0335 42.3129 34.3867C42.075 37.6057 41.8396 41.0493 41.8396 41.0493C41.7778 42.2521 40.7139 43.2078 39.4831 43.0989C38.2978 43.0013 37.3441 41.9865 37.463 40.7491L37.8674 35.5388C37.032 35.6633 36.2227 35.7318 35.4639 35.7451L34.1493 42.7576C33.8937 43.9613 32.7733 44.7568 31.5657 44.5565C30.3696 44.31 29.5873 43.1913 29.7971 41.9763L31.0906 35.0546C30.3778 34.8225 29.6898 34.544 29.0347 34.2377L27.5277 39.2727C27.181 40.4538 25.9471 41.1239 24.7741 40.786C23.6013 40.4478 22.9449 39.214 23.2913 38.0327L25.1255 31.9047C24.4934 31.4447 23.9199 30.9852 23.4185 30.5536C23.3385 30.6109 23.2566 30.6694 23.1729 30.729L22.3652 32.5223ZM19.2184 28.7734C20.7117 25.3552 23.5562 18.8118 24.9287 15.4402C25.0881 15.0446 25.2365 14.6725 25.3773 14.3194C26.609 11.2306 27.2632 9.58992 29.6943 6.33395L32.5043 0L46.5363 3.46117L46.1138 9.70347C46.5149 10.8799 46.7058 11.4395 46.9365 11.9825C47.1459 12.4752 47.3882 12.9542 47.8503 13.8678C49.9219 17.7406 52.1113 26.4323 52.1113 26.4323C52.6083 27.7243 51.941 29.2162 50.5713 29.658C49.304 30.0765 48.2577 29.4285 47.4877 28.0692C46.7174 26.71 45.4625 24.013 45.4625 24.013C44.7033 22.8024 43.7213 23.2423 43.512 24.2625C43.1516 26.0742 42.9534 27.2433 42.7289 29.2829C42.7081 29.4718 42.6835 29.7266 42.656 30.0335C43.0633 29.8225 43.4564 29.5939 43.8295 29.3481L44.7676 28.7298L45.7761 29.2283C47.4977 30.0792 50.2049 30.7965 51.6309 31.137C52.8773 31.4346 54.5808 31.2757 56.4392 30.7202C58.2619 30.1755 60.018 29.3135 61.2811 28.4507L62.4218 21.9741L66.25 22.6329L57.5359 72.1088V78H8.96412V72.1088L0.25 22.6329L4.07815 21.9741L5.75396 31.4887C5.95774 31.5321 6.20138 31.5752 6.48747 31.6143C7.27435 31.7218 8.22901 31.7798 9.24688 31.7814C11.3192 31.7844 13.4243 31.5541 14.7289 31.1651C15.8193 30.8399 17.3052 30.0171 18.8248 29.0316C18.9574 28.9456 19.0887 28.8594 19.2184 28.7734ZM38.1743 31.5851L38.387 28.845C38.3768 28.5016 38.2071 28.2161 37.888 28.1374L37.6602 28.0812C37.2618 27.934 36.862 28.1766 36.8033 28.6005L36.1911 31.8662C36.8234 31.8171 37.4918 31.7232 38.1743 31.5851ZM31.805 31.2314L32.5562 27.2118C32.6034 26.8336 32.3995 26.491 32.0804 26.4123C31.7162 26.3225 31.3277 26.5189 31.2351 26.8859L30.1535 30.4996C30.697 30.7779 31.2497 31.025 31.805 31.2314ZM26.3109 27.944L26.9987 25.6459C27.0913 25.2792 26.8991 24.8906 26.5345 24.8007L26.4891 24.7895C26.1249 24.6996 25.7934 24.8615 25.6553 25.2173L24.972 26.7344C25.3146 27.0782 25.7687 27.4961 26.3109 27.944Z" fill="black"/>
</svg>
