<svg width="228" height="86" viewBox="0 0 228 86" fill="none" xmlns="http://www.w3.org/2000/svg">
<path d="M10.6099 23.9582H6.40865V41.8135H0.25V1.18555H6.40865V17.4654H10.6099V1.18555H16.7685V41.8613H10.6099V23.9582Z" fill="#172FF2"/>
<path d="M27.3666 42.291H26.173C21.2557 42.291 18.6299 39.6175 18.6299 34.6047V26.4409H24.7408V33.5544C24.7408 35.4163 25.3614 36.4188 26.7459 36.4188C28.2259 36.4188 28.7511 35.4163 28.7511 32.9337V32.0266C28.7511 29.1144 28.4646 28.1118 26.2208 25.1996L22.3537 20.0913C19.7279 16.7016 18.9641 14.0758 18.9641 10.0178V8.72879C18.9641 3.33401 21.6853 0.803711 26.555 0.803711H27.7008C32.7614 0.803711 34.7665 3.04756 34.7665 7.86945V14.5533H28.7988V8.68105C28.7988 7.29655 28.5124 6.29398 27.0324 6.29398C25.5524 6.29398 25.2182 7.20107 25.2182 9.15847V9.92233C25.2182 12.2139 25.6479 13.4552 27.7485 16.1765L31.6633 21.2371C34.4323 24.8654 35.3394 26.9183 35.3394 31.5015V32.7905C35.3394 38.7582 32.7614 42.291 27.3666 42.291Z" fill="#172FF2"/>
<path d="M51.1424 1.18555V7.10549H43.2651V17.7518H49.4237V23.9105H43.2651V35.6549H51.4766V41.8135H37.1064V1.18555H51.1424Z" fill="#172FF2"/>
<path d="M68.1381 34.1748H63.6504L62.8388 41.8134H57.3008L62.2659 1.1377H69.5703L74.8696 41.8134H68.902L68.1381 34.1748ZM67.4697 28.1116L65.8465 13.0731L64.271 28.1116H67.4697Z" fill="#172FF2"/>
<path d="M82.0795 41.8613H75.9209V1.18555H85.9466C90.0524 1.18555 92.1053 2.95198 92.1053 7.48742V14.6964C92.1053 18.086 90.5298 19.375 89.4317 19.9002C90.8162 20.5208 92.1053 21.6189 92.1053 24.3402V38.6149C92.1053 40.2381 92.4394 41.0019 92.7259 41.6226V41.909H86.615C86.3285 41.4793 85.9943 40.7632 85.9943 38.5671V26.2498C85.9943 24.4356 85.6602 23.6718 83.7028 23.6718H82.1273L82.0795 41.8613ZM82.0795 17.8951H83.7028C85.4215 17.8951 85.9466 16.797 85.9466 14.9828V9.3016C85.9466 7.53516 85.5647 6.67582 83.7028 6.67582H82.0795V17.8951Z" fill="#172FF2"/>
<path d="M104.566 7.05775V41.8135H98.4548V7.05775H93.251V1.18555H109.77V7.10549L104.566 7.05775Z" fill="#172FF2"/>
<path d="M126.288 34.1748H121.8L120.988 41.8134H115.45L120.415 1.1377H127.72L133.019 41.8134H127.051L126.288 34.1748ZM125.619 28.1116L123.996 13.0731L122.42 28.1116H125.619Z" fill="#172FF2"/>
<path d="M139.607 1.18555L144.907 23.0034V1.18555H150.54V41.8613H145.527L139.607 18.468V41.8613H134.021V1.18555H139.607Z" fill="#172FF2"/>
<path d="M152.832 1.18555H162.333C167.632 1.18555 169.255 4.19326 169.255 9.01515V33.793C169.255 38.7581 167.393 41.8613 162.333 41.8613H152.88V1.18555H152.832ZM159.038 35.9413H160.518C162.38 35.9413 162.905 34.9388 162.905 32.7904V9.87449C162.905 7.53516 162.285 6.72356 160.757 6.72356H158.991V35.9413H159.038Z" fill="#172FF2"/>
<path d="M0.25 43.9619H9.70281C15.0021 43.9619 16.6253 46.9696 16.6253 51.7915V76.5693C16.6253 81.5344 14.7634 84.6376 9.70281 84.6376H0.25V43.9619ZM6.40865 78.7654H7.88863C9.75055 78.7654 10.2757 77.7629 10.2757 75.6145V52.6986C10.2757 50.3593 9.65507 49.5477 8.12734 49.5477H6.36091V78.7654H6.40865Z" fill="#172FF2"/>
<path d="M32.905 43.9619V49.8819H25.0277V60.5282H31.1863V66.6868H25.0277V78.4313H33.2392V84.5899H18.8213V43.9619H32.905Z" fill="#172FF2"/>
<path d="M43.0736 85.0676H41.8801C36.9627 85.0676 34.3369 82.3941 34.3369 77.3813V69.2175H40.4478V76.3309C40.4478 78.1929 41.0685 79.1954 42.453 79.1954C43.9329 79.1954 44.4581 78.1929 44.4581 75.7103V74.8032C44.4581 71.891 44.1717 70.8884 41.9278 67.9762L38.013 62.9633C35.3872 59.5737 34.6234 56.9479 34.6234 52.8899V51.6009C34.6234 46.2061 37.3446 43.6758 42.2143 43.6758H43.3601C48.4684 43.6758 50.4258 45.9196 50.4258 50.7415V57.4253H44.4581V51.5531C44.4581 50.1686 44.1717 49.1661 42.6917 49.1661C41.2117 49.1661 40.8775 50.0731 40.8775 52.0305V52.7944C40.8775 55.086 41.3072 56.3273 43.4078 59.0485L47.3226 64.1091C50.0916 67.7375 50.9987 69.7904 50.9987 74.3735V75.6626C51.0464 81.5348 48.4684 85.0676 43.0736 85.0676Z" fill="#172FF2"/>
<path d="M58.9721 84.6376H52.8135V43.9619H58.9721V84.6376Z" fill="#172FF2"/>
<path d="M66.9922 85.2106C63.3639 85.2106 61.0723 81.9642 61.0723 77.763V52.3168C61.0723 47.7813 62.8387 43.5801 68.6632 43.5801H69.8567C76.4928 43.5801 77.2566 47.8768 77.2566 52.6987V56.8522H71.2412V52.269C71.2412 50.4549 70.8115 49.5 69.2838 49.5C67.9948 49.5 67.3741 50.5026 67.3741 52.269V76.0443C67.3741 77.9539 68.138 78.9565 69.3793 78.9565C70.9547 78.9565 71.6709 77.8585 71.6709 76.3307V66.1618H68.9019V59.9077H77.5431V84.6377H74.0579C74.0102 84.399 73.5328 82.3939 73.0076 80.6275C72.578 82.012 70.4773 85.1629 67.3741 85.1629H66.9922V85.2106Z" fill="#172FF2"/>
<path d="M85.2772 43.9619L90.5765 65.7798V43.9619H96.21V84.6376H91.1971L85.2772 61.2443V84.6376H79.6914V43.9619H85.2772Z" fill="#172FF2"/>
<path d="M112.347 85.0676H111.154C106.236 85.0676 103.61 82.3941 103.61 77.3813V69.2175H109.721V76.3309C109.721 78.1929 110.342 79.1954 111.726 79.1954C113.206 79.1954 113.732 78.1929 113.732 75.7103V74.8032C113.732 71.891 113.445 70.8884 111.201 67.9762L107.286 62.9633C104.661 59.5737 103.897 56.9479 103.897 52.8899V51.6009C103.897 46.2061 106.618 43.6758 111.488 43.6758H112.633C117.694 43.6758 119.699 45.9196 119.699 50.7415V57.4253H113.732V51.5531C113.732 50.1686 113.445 49.1661 111.965 49.1661C110.485 49.1661 110.151 50.0731 110.151 52.0305V52.7944C110.151 55.086 110.581 56.3273 112.681 59.0485L116.596 64.1091C119.365 67.7375 120.272 69.7904 120.272 74.3735V75.6626C120.32 81.5348 117.742 85.0676 112.347 85.0676Z" fill="#172FF2"/>
<path d="M132.16 76.3788V66.926H138.223V76.3311C138.223 80.7233 136.791 85.1155 130.823 85.1155H129.439C123.184 85.1155 121.848 80.6278 121.848 76.5221V51.6965C121.848 47.543 123.662 43.5327 129.248 43.5327H130.68C137.459 43.5327 138.223 48.0204 138.223 51.983V59.2397H132.16V52.0784C132.16 50.312 131.635 49.4049 130.059 49.4049C128.531 49.4049 128.15 50.2643 128.15 52.0784V76.2356C128.15 78.0498 128.77 79.0046 130.107 79.0046C131.635 79.1479 132.16 78.0498 132.16 76.3788Z" fill="#172FF2"/>
<path d="M150.588 66.7823H146.387V84.6376H140.229V43.9619H146.387V60.2418H150.588V43.9619H156.747V84.6376H150.588V66.7823Z" fill="#172FF2"/>
<path d="M175.795 75.5669C175.795 81.2481 173.885 85.1152 167.918 85.1152H166.867C160.947 85.1152 158.895 81.2481 158.895 75.5669V52.9374C158.895 47.3039 161.043 43.5801 166.82 43.5801H167.87C173.885 43.5801 175.795 47.3039 175.795 52.8897V75.5669ZM169.493 52.6032C169.493 50.4548 168.777 49.5 167.345 49.5C165.769 49.5 165.149 50.5503 165.149 52.6032V75.9965C165.149 77.763 165.626 79.0997 167.393 79.0997C169.016 79.0997 169.493 77.7152 169.493 75.9965V52.6032Z" fill="#172FF2"/>
<path d="M194.653 75.5669C194.653 81.2481 192.744 85.1152 186.776 85.1152H185.726C179.806 85.1152 177.753 81.2481 177.753 75.5669V52.9374C177.753 47.3039 179.901 43.5801 185.678 43.5801H186.728C192.744 43.5801 194.653 47.3039 194.653 52.8897V75.5669ZM188.352 52.6032C188.352 50.4548 187.635 49.5 186.203 49.5C184.628 49.5 184.007 50.5503 184.007 52.6032V75.9965C184.007 77.763 184.484 79.0997 186.251 79.0997C187.874 79.0997 188.352 77.7152 188.352 75.9965V52.6032Z" fill="#172FF2"/>
<path d="M202.959 43.9619V78.3358H210.503V84.6376H196.801V43.9619H202.959Z" fill="#172FF2"/>
<path fill-rule="evenodd" clip-rule="evenodd" d="M219.144 43.5332C214.561 43.5332 210.789 47.257 210.789 51.888C210.789 56.4711 214.513 60.2427 219.144 60.2427C223.775 60.2427 227.499 56.5189 227.499 51.888C227.451 47.257 223.727 43.5332 219.144 43.5332Z" fill="#172FF2"/>
<path fill-rule="evenodd" clip-rule="evenodd" d="M220.529 51.1232C221.054 50.8845 221.388 50.5503 221.627 50.3116C222.057 49.8342 222.2 49.2613 222.2 48.6884C222.2 48.2587 222.057 47.3516 221.293 46.731C220.768 46.3013 220.29 46.1104 219.144 46.1104H218.572H218.524H216.137V57.2819H222.868V55.1335C222.916 53.0806 222.248 51.6961 220.529 51.1232ZM221.388 56.6612H220.147V52.9374H218.762V56.6612H217.712V46.6355H218.81C219.24 46.6355 219.861 46.731 220.29 47.2561C220.529 47.5426 220.672 47.9245 220.72 48.2587H218.762V48.8316H220.72C220.72 49.1658 220.624 49.5955 220.29 50.0252C220.004 50.4071 219.479 50.7413 218.762 50.7413V51.3142C220.672 51.3142 221.388 52.5554 221.388 54.8948V56.6612Z" fill="#D1D5FC"/>
</svg>
