<svg width="99" height="76" viewBox="0 0 99 76" fill="none" xmlns="http://www.w3.org/2000/svg">
<path fill-rule="evenodd" clip-rule="evenodd" d="M91.7848 8H21.2677V2H97.75V74H1.75L2.35009 70.4914L2.35348 70.4717L2.36109 70.4282L2.38915 70.2719C2.41361 70.1375 2.44966 69.9437 2.49772 69.6959C2.59383 69.2005 2.73814 68.4887 2.93409 67.6049C3.32559 65.839 3.92537 63.3765 4.76192 60.5746C6.41814 55.0274 9.07 47.9156 13.0158 42.2739C21.3204 30.4 34.5978 27.5 59.5176 27.5C72.0457 27.5 80.9066 27.7792 86.6505 28.06C88.7813 28.1642 90.4834 28.2686 91.7848 28.359V8ZM91.7848 34.3738C90.4839 34.2802 88.6888 34.1667 86.3609 34.0529C80.7221 33.7773 71.9581 33.5 59.5176 33.5C34.5 33.5 24.2775 36.6 17.8947 45.7261C14.4968 50.5844 12.0658 56.9726 10.475 62.3004C9.82336 64.483 9.32408 66.4484 8.9632 68H91.7848V34.3738Z" fill="#172FF2" stroke="#172FF2" stroke-width="2.25"/>
</svg>
