<svg width="579" height="542" viewBox="0 0 579 542" fill="none" xmlns="http://www.w3.org/2000/svg">
<path d="M223.715 2.39208C258.187 17.6491 344.955 14.1106 354.099 2.39208C354.626 1.71659 359.423 3.49458 366.794 6.771C387.824 16.12 429.799 37.6693 453.258 49.2304L569.16 194.895L575.75 203.177L501.981 287.899L492.814 283.611L461.493 268.957V540H112.89V268.957L84.7542 283.611L76.5195 287.899L2.75 203.177C4.70975 200.545 6.77348 197.777 8.92605 194.895C48.732 141.601 118.921 49.2304 123.869 49.2304C128.447 49.2304 177.948 25.1721 211.02 8.73175C211.02 8.73175 219.913 4.30054 223.715 2.39208Z" fill="#D1D5FC"/>
<path d="M223.715 2.39208C258.187 17.6491 344.955 14.1106 354.099 2.39208M223.715 2.39208C225.275 7.88586 227.369 12.8111 229.905 17.2013M223.715 2.39208C219.913 4.30054 211.02 8.73175 211.02 8.73175M354.099 2.39208C356.129 -0.210874 421.578 33.6177 453.258 49.2304M354.099 2.39208C354.099 7.64447 352.714 12.6154 350.226 17.2013M453.258 49.2304L465.267 215.576L461.493 268.957M453.258 49.2304L569.16 194.895M461.493 268.957V540H112.89V268.957M461.493 268.957L492.814 283.611M112.89 268.957V215.576L123.869 49.2304M112.89 268.957L84.7542 283.611M123.869 49.2304C128.447 49.2304 177.948 25.1721 211.02 8.73175M123.869 49.2304C118.921 49.2304 48.732 141.601 8.92605 194.895M229.905 17.2013C256.589 63.3927 332.237 50.3591 350.226 17.2013M229.905 17.2013C245.263 28.1083 324.8 27.9728 350.226 17.2013M211.02 8.73175C225.52 66.3548 336.299 93.1739 366.794 6.771M8.92605 194.895C6.77347 197.777 4.70975 200.545 2.75 203.177L76.5195 287.899L84.7542 283.611M8.92605 194.895L84.7542 283.611M492.814 283.611L501.981 287.899L575.75 203.177L569.16 194.895M492.814 283.611C497.128 283.611 545.509 224.467 569.16 194.895" stroke="#172FF2" stroke-width="3.75"/>
<ellipse cx="333.125" cy="146.25" rx="7.875" ry="21.75" fill="#172FF2"/>
<path d="M311.013 170.864C313.248 179.037 317.656 186.451 323.769 192.318C329.882 198.185 337.471 202.286 345.729 204.184C353.986 206.081 362.604 205.706 370.665 203.096C378.726 200.486 385.929 195.74 391.508 189.363" stroke="#172FF2" stroke-width="3.75"/>
<ellipse cx="376.625" cy="146.25" rx="7.875" ry="21.75" fill="#172FF2"/>
</svg>
