<svg width="567" height="531" viewBox="0 0 567 531" fill="none" xmlns="http://www.w3.org/2000/svg">
<path d="M356.469 322.746C392.458 373.55 392.221 407.243 356.469 476.353" stroke="#172FF2" stroke-width="15" stroke-linecap="round"/>
<path d="M390.67 449.11C388.931 442.154 378.497 442.154 358.209 442.154C343.98 442.154 340.301 454.13 345.972 461.282C340.301 472.499 338.455 478.62 338.501 489.106C340.125 511.122 359.949 514.61 382.554 514.61C405.16 514.61 430.086 514.61 430.086 491.424C430.086 468.238 406.236 465.056 401.683 464.181C398.204 463.512 391.957 463.15 387.77 463.859V456.152C390.115 454.559 391.454 452.247 390.67 449.11Z" fill="white"/>
<path d="M358.209 466.499C352.496 466.499 348.386 464.328 345.972 461.282M376.757 458.964C380.575 458.964 384.917 458.09 387.77 456.152M345.972 461.282C340.301 454.13 343.98 442.154 358.209 442.154C378.497 442.154 388.931 442.154 390.67 449.11C391.454 452.247 390.115 454.559 387.77 456.152M345.972 461.282C340.301 472.499 338.455 478.62 338.501 489.106C340.125 511.122 359.949 514.61 382.554 514.61C405.16 514.61 430.086 514.61 430.086 491.424C430.086 468.238 406.236 465.056 401.683 464.181C398.204 463.512 391.957 463.15 387.77 463.859M370.382 476.353C373.086 469.784 381.394 464.938 387.77 463.859M387.77 463.859V456.152" stroke="#172FF2" stroke-width="3.75" stroke-linecap="round"/>
<path d="M251.234 342.996C215.565 393.225 215.8 426.537 251.234 494.864" stroke="#172FF2" stroke-width="15" stroke-linecap="round"/>
<path d="M260.509 482.307C270.363 488.104 275 496.023 273.261 510.514C271.522 525.006 265.726 528.484 236.743 528.484C207.76 528.484 192.461 526.557 191.53 507.037C190.729 490.242 206.043 478.403 222.831 477.474C216.958 464.256 225.022 460.085 245.438 461.824C265.855 463.563 266.885 468.2 268.045 473.417C268.779 476.723 265.777 479.765 260.509 482.307Z" fill="white"/>
<path d="M260.509 482.307C270.363 488.104 275 496.023 273.261 510.514C271.522 525.006 265.726 528.484 236.743 528.484C207.76 528.484 192.461 526.557 191.53 507.037C190.729 490.242 206.043 478.403 222.831 477.474M222.831 477.474C216.958 464.256 225.022 460.085 245.438 461.824C265.855 463.563 266.885 468.2 268.045 473.417C269.204 478.634 261.055 483.195 249.385 486.169M222.831 477.474C233.532 476.882 243.381 478.121 249.385 486.169M252.973 493.125C252.021 490.378 250.812 488.081 249.385 486.169" stroke="#172FF2" stroke-width="3.75" stroke-linecap="round"/>
<path d="M50.0265 217.442C49.5863 214.764 50.233 212.148 52.548 210.421C59.4524 205.27 75.8002 223.09 70.4387 227.974C69.2134 229.09 67.8872 229.811 66.5077 230.175M50.0265 217.442C50.3518 219.421 51.2704 221.434 52.5479 223.147C56.5868 228.564 61.8509 231.403 66.5077 230.175M50.0265 217.442C40.8113 217.923 33.3738 221.094 29.4199 224.464C25.4659 227.833 25.7155 230.233 24.1835 234.118C5.46394 237.405 1.22475 240.263 2.80188 246.845C5.17795 254.629 13.4418 250.927 29.4199 242.895C15.3218 254.576 9.51179 260.38 14.5836 265.276C19.9904 269.355 25.3126 265.309 37.7107 249.917C29.8825 262.875 24.1835 272.297 29.4199 275.808C34.6562 279.319 40.6326 274.992 44.2561 263.521C47.148 255.754 49.4206 254.259 54.2924 255.183C55.1179 269.341 56.6606 274.135 63.0196 272.297C69.3495 269.262 70.0503 264.993 63.0196 249.917C65.3384 244.132 66.4556 240.513 66.5077 230.175" stroke="#172FF2" stroke-width="3.75" stroke-linecap="round"/>
<path d="M154.75 191.471C146.166 181.925 85.7104 196.662 63.25 216.996" stroke="#172FF2" stroke-width="15" stroke-linecap="round"/>
<path d="M497.004 205.528C496.136 203.301 494.499 201.721 491.802 201.372C486.661 200.708 483.605 204.071 480.375 208.125C474.296 215.755 472.205 232.324 481.933 233.057C483.456 233.172 484.837 232.99 486.093 232.568M497.004 205.528C498.701 209.882 497.455 216.709 495.438 221.63C493.397 226.61 490.521 231.081 486.093 232.568M497.004 205.528C506.177 202.043 511.672 201.963 522.453 205.528C534.363 196.567 542.191 195.139 544.269 200.333C546.346 205.528 540.955 209.885 529.205 215.397C548.591 216.56 557.838 217.718 555.177 225.785C553.315 230.166 550.454 231.575 544.269 233.46M486.093 232.568C495.744 240.631 496.404 243.578 495.438 248.121C491.99 254.997 489.377 256.732 491.802 261.626C495.633 269.356 507.261 259.272 508.948 242.927C537.277 248.65 549.982 247.082 549.982 240.849C549.982 237.898 547.935 235.525 544.269 233.46M526.608 227.344C534.107 229.247 540.19 231.163 544.269 233.46" stroke="#172FF2" stroke-width="3.75" stroke-linecap="round"/>
<path d="M481.937 216.955C469.014 205.242 446.108 195 424 188.475" stroke="#172FF2" stroke-width="15" stroke-linecap="round"/>
<rect x="126.481" y="26.0432" width="296.25" height="371.25" transform="rotate(-3.2013 126.481 26.0432)" fill="#D1D5FC" stroke="#172FF2" stroke-width="3.75"/>
<rect x="172.205" y="205.208" width="51" height="75" transform="rotate(-3.2013 172.205 205.208)" fill="#172FF2"/>
<circle cx="286.624" cy="236.367" r="100.125" transform="rotate(-3.2013 286.624 236.367)" fill="white" stroke="#172FF2" stroke-width="3.75"/>
<rect x="372.65" y="216.532" width="22.5" height="30" transform="rotate(-3.2013 372.65 216.532)" fill="#172FF2"/>
<path d="M271.846 119.878C283.175 100.841 302.503 110.652 292.15 127.005" stroke="#172FF2" stroke-width="3.75"/>
<path d="M184 67.3706L235.375 92.1206" stroke="#172FF2" stroke-width="3.75"/>
<path d="M197.312 105.433L222.062 54.0581" stroke="#172FF2" stroke-width="3.75"/>
<path d="M333.139 46.0669L369.736 89.7998" stroke="#172FF2" stroke-width="3.75"/>
<path d="M329.571 86.2319L373.304 49.6343" stroke="#172FF2" stroke-width="3.75"/>
</svg>
