<svg width="758" height="699" viewBox="0 0 758 699" fill="none" xmlns="http://www.w3.org/2000/svg">
<path d="M474.959 422C522.945 489.739 522.628 534.663 474.959 626.81" stroke="#172FF2" stroke-width="20" stroke-linecap="round"/>
<path d="M520.559 590.485C518.242 581.211 504.329 581.211 477.279 581.211C458.306 581.211 453.401 597.179 460.962 606.716C453.402 621.671 450.94 629.832 451.001 643.813C453.166 673.168 479.598 677.82 509.739 677.82C539.88 677.82 573.114 677.82 573.114 646.905C573.114 615.99 541.314 611.747 535.244 610.58C530.606 609.688 522.276 609.206 516.694 610.151V599.875C519.82 597.752 521.605 594.669 520.559 590.485Z" fill="white"/>
<path d="M477.279 613.672C469.662 613.672 464.182 610.777 460.962 606.716M502.009 603.624C507.1 603.624 512.89 602.46 516.694 599.875M460.962 606.716C453.401 597.179 458.306 581.211 477.279 581.211C504.329 581.211 518.242 581.211 520.559 590.485C521.605 594.669 519.82 597.752 516.694 599.875M460.962 606.716C453.402 621.671 450.94 629.832 451.001 643.813C453.166 673.168 479.598 677.82 509.739 677.82C539.88 677.82 573.114 677.82 573.114 646.905C573.114 615.99 541.314 611.747 535.244 610.58C530.606 609.688 522.276 609.206 516.694 610.151M493.509 626.81C497.115 618.051 508.192 611.59 516.694 610.151M516.694 610.151V599.875" stroke="#172FF2" stroke-width="5" stroke-linecap="round"/>
<path d="M334.646 449C287.087 515.973 287.401 560.388 334.646 651.492" stroke="#172FF2" stroke-width="20" stroke-linecap="round"/>
<path d="M347.012 634.749C360.151 642.478 366.333 653.036 364.015 672.359C361.696 691.681 353.967 696.317 315.324 696.317C276.68 696.317 256.281 693.748 255.04 667.721C253.972 645.328 274.391 629.543 296.775 628.305C288.944 610.681 299.695 605.119 326.918 607.438C354.14 609.757 355.514 615.94 357.059 622.895C358.039 627.303 354.035 631.359 347.012 634.749Z" fill="white"/>
<path d="M347.012 634.749C360.151 642.478 366.333 653.036 364.015 672.359C361.696 691.681 353.967 696.317 315.324 696.317C276.68 696.317 256.281 693.748 255.04 667.721C253.972 645.328 274.391 629.543 296.775 628.305M296.775 628.305C288.944 610.681 299.695 605.119 326.918 607.438C354.14 609.757 355.514 615.94 357.059 622.895C358.605 629.851 347.74 635.932 332.181 639.899M296.775 628.305C311.043 627.516 324.175 629.168 332.181 639.899M336.964 649.172C335.695 645.509 334.082 642.448 332.181 639.899" stroke="#172FF2" stroke-width="5" stroke-linecap="round"/>
<path d="M66.3687 281.595C65.7817 278.024 66.644 274.536 69.7306 272.233C78.9366 265.365 100.734 289.126 93.5849 295.638C91.9513 297.127 90.183 298.087 88.3437 298.572M66.3687 281.595C66.8024 284.234 68.0272 286.917 69.7306 289.202C75.1158 296.424 82.1346 300.209 88.3437 298.572M66.3687 281.595C54.0817 282.237 44.1651 286.465 38.8931 290.957C33.6212 295.45 33.9539 298.649 31.9114 303.83C6.95192 308.212 1.29966 312.023 3.40251 320.799C6.5706 331.177 17.5891 326.241 38.8931 315.533C20.0958 331.107 12.349 338.846 19.1115 345.374C26.3205 350.812 33.4168 345.418 49.9476 324.895C39.51 342.173 31.9114 354.736 38.8931 359.417C45.8749 364.098 53.8435 358.329 58.6748 343.033C62.5306 332.678 65.5608 330.684 72.0565 331.916C73.1571 350.794 75.2141 357.186 83.6928 354.736C92.1326 350.689 93.067 344.997 83.6928 324.895C86.7845 317.181 88.2741 312.356 88.3437 298.572" stroke="#172FF2" stroke-width="5" stroke-linecap="round"/>
<path d="M206 246.967C194.555 234.239 113.947 253.889 84 281" stroke="#172FF2" stroke-width="20" stroke-linecap="round"/>
<path d="M676.839 268.708C675.682 265.74 673.499 263.633 669.903 263.168C663.049 262.281 658.973 266.765 654.667 272.171C646.561 282.345 643.774 304.437 656.744 305.414C658.774 305.567 660.616 305.325 662.291 304.762M676.839 268.708C679.102 274.514 677.44 283.617 674.751 290.178C672.03 296.818 668.195 302.779 662.291 304.762M676.839 268.708C689.07 264.062 696.396 263.956 710.771 268.708C726.651 256.76 737.088 254.857 739.859 261.783C742.629 268.708 735.441 274.518 719.774 281.867C745.621 283.417 757.951 284.961 754.402 295.718C751.92 301.559 748.105 303.438 739.859 305.951M662.291 304.762C675.158 315.513 676.039 319.442 674.751 325.499C670.154 334.667 666.669 336.981 669.903 343.506C675.011 353.813 690.515 340.368 692.764 318.573C730.536 326.204 747.477 324.114 747.477 315.803C747.477 311.869 744.747 308.704 739.859 305.951M716.311 297.796C726.31 300.334 734.42 302.888 739.859 305.951" stroke="#172FF2" stroke-width="5" stroke-linecap="round"/>
<path d="M503 241.006C517.424 224.946 619.009 249.738 656.75 283.945" stroke="#172FF2" stroke-width="20" stroke-linecap="round"/>
<rect x="168.636" y="24.6941" width="395" height="495" transform="rotate(-3.2013 168.636 24.6941)" fill="#D1D5FC" stroke="#172FF2" stroke-width="5"/>
<rect x="229.602" y="263.581" width="68" height="100" transform="rotate(-3.2013 229.602 263.581)" fill="#172FF2"/>
<circle cx="382.16" cy="305.126" r="133.5" transform="rotate(-3.2013 382.16 305.126)" fill="white" stroke="#172FF2" stroke-width="5"/>
<rect x="496.861" y="278.679" width="30" height="40" transform="rotate(-3.2013 496.861 278.679)" fill="#172FF2"/>
<path d="M489.833 99.2918C490.534 111.811 486.457 124.129 478.426 133.759C470.396 143.388 459.01 149.612 446.569 151.172C434.127 152.731 421.558 149.512 411.399 142.163C401.239 134.814 394.247 123.883 391.835 111.579C389.423 99.2743 391.77 86.5129 398.403 75.872C405.036 65.2312 415.459 57.5039 427.569 54.251C439.678 50.998 452.571 52.4617 463.643 58.3465C474.714 64.2312 483.141 74.0985 487.219 85.9554L440.411 102.056L489.833 99.2918Z" fill="#172FF2"/>
<path d="M357.04 106.719C357.741 119.238 353.664 131.557 345.633 141.186C337.603 150.816 326.217 157.039 313.776 158.599C301.334 160.159 288.765 156.939 278.606 149.59C268.446 142.241 261.454 131.31 259.042 119.006C256.63 106.702 258.977 93.9401 265.61 83.2993C272.243 72.6585 282.666 64.9312 294.776 61.6782C306.885 58.4252 319.778 59.889 330.85 65.7737C341.922 71.6585 350.348 81.5258 354.426 93.3827L307.618 109.483L357.04 106.719Z" fill="#172FF2"/>
<path d="M258.461 72.7155C260.505 49.7195 298.114 29.9003 320.959 43.1294" stroke="#172FF2" stroke-width="5"/>
<path d="M415.444 40.6931C434.295 24.0214 475.492 30.5636 483.183 54.5753" stroke="#172FF2" stroke-width="5"/>
<path d="M362.455 149.808C377.561 124.425 403.332 137.506 389.528 159.311" stroke="#172FF2" stroke-width="5"/>
<path d="M296.64 351.945C291.336 351.086 287.337 348.946 284.642 345.525C281.934 342.189 280.96 338.168 281.722 333.463C282.276 330.041 283.645 327.278 285.83 325.173C288.014 323.068 290.488 321.888 293.251 321.633C287.878 315.233 285.863 307.883 287.207 299.584C288.162 293.681 290.385 289.168 293.876 286.046C297.438 283.023 301.615 281.899 306.406 282.675C311.368 283.478 315.155 285.847 317.766 289.782C320.449 293.816 321.934 299.017 322.22 305.384C322.438 309.458 322.292 316.326 321.781 325.989L326.401 326.737C330.593 327.415 333.902 326.502 336.326 323.998C338.837 321.507 340.411 318.294 341.048 314.358C341.699 310.337 341.34 306.855 339.973 303.912C338.678 301.069 336.704 299.432 334.052 299.003L333.795 298.961C333.61 299.019 333.389 299.027 333.133 298.986C332.862 299.03 332.599 299.031 332.342 298.99L331.975 289.053C334.426 289.099 335.737 289.136 335.908 289.163C341.212 290.022 345.202 293.038 347.876 298.212C350.622 303.485 351.427 309.63 350.291 316.645C349.1 324.003 346.276 329.515 341.819 333.184C337.448 336.866 332.182 338.208 326.022 337.211L295.737 332.308C294.453 332.1 293.322 332.312 292.342 332.943C291.348 333.661 290.747 334.661 290.539 335.944C290.234 337.826 290.94 339.433 292.656 340.764C294.372 342.096 296.855 343.024 300.106 343.551L296.64 351.945ZM305.836 293.513C303.355 293.112 301.199 293.685 299.369 295.232C297.524 296.865 296.359 299.178 295.874 302.173C295.265 305.937 295.546 309.626 296.717 313.239C297.959 316.952 299.94 320.17 302.66 322.893L313.953 324.722C314.365 315.131 314.311 308.142 313.792 303.756C313.465 300.894 312.571 298.554 311.109 296.737C309.647 294.92 307.89 293.846 305.836 293.513Z" fill="black"/>
<path d="M411.87 256.112L420.128 262.457C416.587 267.679 411.889 271.384 406.035 273.57C400.264 275.776 394.173 276.126 387.761 274.621C379.07 272.58 372.55 267.933 368.199 260.68C363.849 253.427 362.763 245.16 364.942 235.879C367.101 226.683 371.743 219.805 378.867 215.246C386.011 210.603 393.928 209.301 402.618 211.342C409.79 213.025 415.548 216.559 419.893 221.941C424.238 227.323 426.452 233.629 426.534 240.86L416.456 241.698C416.468 236.716 414.997 232.364 412.043 228.644C409.173 224.943 405.291 222.518 400.397 221.369C394.491 219.983 389.112 220.901 384.261 224.124C379.429 227.262 376.28 231.953 374.814 238.197C373.348 244.441 374.07 250.085 376.98 255.131C379.911 260.092 384.329 263.266 390.235 264.652C394.453 265.643 398.475 265.385 402.301 263.88C406.23 262.31 409.42 259.72 411.87 256.112Z" fill="black"/>
<path d="M439.05 386.386C434.174 393.656 427.648 398.253 419.47 400.178C411.364 402.151 403.64 400.675 396.298 395.752C388.165 390.297 383.448 383.325 382.15 374.837C380.899 366.276 383.701 356.885 390.556 346.664C396.01 338.531 401.328 332.235 406.508 327.779C411.76 323.37 416.839 320.776 421.745 319.996C426.722 319.265 431.301 319.518 435.48 320.755C439.707 321.92 444.316 324.072 449.307 327.211C449.739 327.5 450.747 328.176 452.331 329.238C453.962 330.228 455.066 330.916 455.642 331.302C456.266 331.617 457.25 332.172 458.594 332.969C460.058 333.742 461.198 334.298 462.015 334.637C462.879 334.904 463.876 335.207 465.005 335.546C466.254 335.862 467.383 336.046 468.393 336.097L462.745 344.518C461.399 344.346 460.102 344.102 458.853 343.786C457.724 343.447 456.464 342.915 455.071 342.19C453.751 341.513 452.671 340.945 451.831 340.486C451.039 339.955 449.719 339.122 447.872 337.987C446.144 336.829 444.788 335.972 443.804 335.416C435.982 330.588 429.317 328.466 423.811 329.052C418.305 329.638 412.718 333.456 407.05 340.508C415.233 336.708 423.463 337.584 431.741 343.135C438.867 347.914 443.164 354.344 444.632 362.424C446.172 370.553 444.311 378.54 439.05 386.386ZM392.465 373.459C393.436 379.014 396.368 383.433 401.263 386.715C406.157 389.998 411.358 391.034 416.866 389.823C422.374 388.612 426.866 385.415 430.341 380.233C433.817 375.05 435.069 369.681 434.099 364.126C433.201 358.619 430.304 354.224 425.41 350.942C420.515 347.66 415.314 346.624 409.806 347.835C404.298 349.045 399.807 352.242 396.331 357.425C392.856 362.607 391.567 367.952 392.465 373.459Z" fill="black"/>
</svg>
