<svg width="564" height="525" viewBox="0 0 564 525" fill="none" xmlns="http://www.w3.org/2000/svg">
<path d="M356.469 316.606C392.458 367.387 392.221 401.065 356.469 470.143" stroke="#172FF2" stroke-width="15" stroke-linecap="round"/>
<path d="M390.67 442.912C388.931 435.96 378.497 435.96 358.209 435.96C343.98 435.96 340.301 447.93 345.972 455.079C340.301 466.291 338.455 472.409 338.501 482.89C340.125 504.896 359.949 508.383 382.554 508.383C405.16 508.383 430.086 508.383 430.086 485.208C430.086 462.032 406.236 458.851 401.683 457.976C398.204 457.308 391.957 456.946 387.77 457.654V449.951C390.115 448.359 391.454 446.048 390.67 442.912Z" fill="white"/>
<path d="M358.209 460.294C352.496 460.294 348.386 458.124 345.972 455.079M376.757 452.762C380.575 452.762 384.917 451.889 387.77 449.951M345.972 455.079C340.301 447.93 343.98 435.96 358.209 435.96C378.497 435.96 388.931 435.96 390.67 442.912C391.454 446.048 390.115 448.359 387.77 449.951M345.972 455.079C340.301 466.291 338.455 472.409 338.501 482.89C340.125 504.896 359.949 508.383 382.554 508.383C405.16 508.383 430.086 508.383 430.086 485.208C430.086 462.032 406.236 458.851 401.683 457.976C398.204 457.308 391.957 456.946 387.77 457.654M370.382 470.143C373.086 463.577 381.394 458.733 387.77 457.654M387.77 457.654V449.951" stroke="#172FF2" stroke-width="3.75" stroke-linecap="round"/>
<path d="M251.234 336.846C215.565 387.053 215.8 420.349 251.234 488.646" stroke="#172FF2" stroke-width="15" stroke-linecap="round"/>
<path d="M260.509 476.094C270.363 481.889 275 489.804 273.261 504.289C271.522 518.774 265.726 522.25 236.743 522.25C207.76 522.25 192.461 520.324 191.53 500.813C190.729 484.026 206.043 472.192 222.831 471.264C216.958 458.052 225.022 453.883 245.438 455.621C265.855 457.359 266.885 461.994 268.045 467.209C268.779 470.513 265.777 473.553 260.509 476.094Z" fill="white"/>
<path d="M260.509 476.094C270.363 481.889 275 489.804 273.261 504.289C271.522 518.774 265.726 522.25 236.743 522.25C207.76 522.25 192.461 520.324 191.53 500.813C190.729 484.026 206.043 472.192 222.831 471.264M222.831 471.264C216.958 458.052 225.022 453.883 245.438 455.621C265.855 457.359 266.885 461.994 268.045 467.209C269.204 472.423 261.055 476.982 249.385 479.955M222.831 471.264C233.532 470.672 243.381 471.911 249.385 479.955M252.973 486.907C252.021 484.161 250.812 481.866 249.385 479.955" stroke="#172FF2" stroke-width="3.75" stroke-linecap="round"/>
<path d="M50.0265 211.35C49.5863 208.673 50.233 206.058 52.548 204.332C59.4524 199.183 75.8002 216.996 70.4387 221.878C69.2134 222.993 67.8872 223.714 66.5077 224.077M50.0265 211.35C50.3518 213.328 51.2704 215.34 52.5479 217.053C56.5868 222.467 61.8509 225.304 66.5077 224.077M50.0265 211.35C40.8113 211.831 33.3738 215.001 29.4199 218.369C25.4659 221.736 25.7155 224.135 24.1835 228.019C5.46394 231.304 1.22475 234.161 2.80188 240.739C5.17795 248.52 13.4418 244.82 29.4199 236.792C15.3218 248.467 9.51179 254.269 14.5836 259.162C19.9904 263.239 25.3126 259.196 37.7107 243.81C29.8825 256.763 24.1835 266.181 29.4199 269.69C34.6562 273.199 40.6326 268.874 44.2561 257.408C47.148 249.645 49.4206 248.15 54.2924 249.074C55.1179 263.226 56.6606 268.018 63.0196 266.181C69.3495 263.147 70.0503 258.88 63.0196 243.81C65.3384 238.028 66.4556 234.41 66.5077 224.077" stroke="#172FF2" stroke-width="3.75" stroke-linecap="round"/>
<path d="M154.75 185.391C146.166 175.849 85.7104 190.58 63.25 210.904" stroke="#172FF2" stroke-width="15" stroke-linecap="round"/>
<path d="M502.879 201.689C502.011 199.464 500.374 197.884 497.677 197.536C492.536 196.871 489.48 200.233 486.25 204.285C480.171 211.912 478.08 228.474 487.808 229.206C489.331 229.321 490.712 229.139 491.968 228.717M502.879 201.689C504.576 206.042 503.33 212.865 501.313 217.784C499.272 222.762 496.396 227.231 491.968 228.717M502.879 201.689C512.052 198.206 517.547 198.127 528.328 201.689C540.238 192.732 548.066 191.306 550.144 196.497C552.221 201.689 546.83 206.044 535.08 211.554C554.466 212.716 563.713 213.874 561.052 221.938C559.19 226.316 556.329 227.724 550.144 229.608M491.968 228.717C501.619 236.777 502.279 239.722 501.313 244.263C497.865 251.136 495.252 252.87 497.677 257.762C501.508 265.488 513.136 255.409 514.823 239.071C543.152 244.792 555.857 243.225 555.857 236.994C555.857 234.045 553.81 231.672 550.144 229.608M532.483 223.495C539.982 225.398 546.065 227.313 550.144 229.608" stroke="#172FF2" stroke-width="3.75" stroke-linecap="round"/>
<path d="M372.5 180.922C383.318 168.883 459.507 187.468 487.812 213.112" stroke="#172FF2" stroke-width="15" stroke-linecap="round"/>
<rect x="1.97683" y="1.76741" width="296.25" height="371.08" transform="matrix(0.998441 -0.0558187 0.0558695 0.998438 124.654 17.1087)" fill="#D1D5FC" stroke="#172FF2" stroke-width="3.75"/>
<rect width="50.9999" height="74.9659" transform="matrix(0.998441 -0.0558187 0.0558695 0.998438 172.451 197.845)" fill="#172FF2"/>
<path d="M386.839 223.401C389.927 278.586 347.673 325.826 292.461 328.912C237.249 331.999 189.989 289.764 186.901 234.579C183.813 179.394 226.067 132.154 281.279 129.068C336.491 125.981 383.751 168.216 386.839 223.401Z" fill="white" stroke="#172FF2" stroke-width="3.75"/>
<rect width="22.5" height="29.9864" transform="matrix(0.998441 -0.0558187 0.0558695 0.998438 372.896 209.164)" fill="#172FF2"/>
<path d="M367.625 74.6849C368.15 84.07 365.093 93.3045 359.07 100.523C353.047 107.742 344.508 112.408 335.177 113.577C325.846 114.746 316.419 112.333 308.799 106.823C301.18 101.314 295.936 93.1201 294.127 83.8959C292.318 74.6718 294.078 65.1051 299.052 57.1281C304.027 49.1511 311.845 43.3583 320.927 40.9197C330.009 38.4811 339.678 39.5783 347.982 43.9899C356.286 48.4015 362.606 55.7986 365.664 64.6872L330.558 76.7572L367.625 74.6849Z" fill="#172FF2"/>
<path d="M268.031 80.2528C268.556 89.6379 265.498 98.8724 259.475 106.091C253.452 113.31 244.913 117.975 235.582 119.145C226.251 120.314 216.824 117.901 209.204 112.391C201.585 106.882 196.341 98.6879 194.532 89.4638C192.723 80.2396 194.483 70.673 199.458 62.696C204.432 54.719 212.25 48.9262 221.332 46.4876C230.414 44.0489 240.083 45.1462 248.387 49.5578C256.691 53.9694 263.011 61.3665 266.07 70.2551L230.964 82.3251L268.031 80.2528Z" fill="#172FF2"/>
<path d="M194.096 54.7618C195.629 37.5226 223.836 22.665 240.969 32.5823" stroke="#172FF2" stroke-width="3.75"/>
<path d="M311.833 30.7559C325.971 18.2578 356.869 23.1623 362.637 41.1628" stroke="#172FF2" stroke-width="3.75"/>
<path d="M272.092 112.555C283.421 93.5261 302.749 103.333 292.397 119.679" stroke="#172FF2" stroke-width="3.75"/>
<path d="M220.915 251.771C221.741 246.67 225.284 243.095 229.562 242.899C225.501 238.093 224.017 232.618 225.031 226.362C226.465 217.508 232.212 212.512 239.431 213.68C246.842 214.879 250.862 221.159 251.291 230.71C251.481 233.803 251.344 238.917 250.961 246.164L254.426 246.724C259.719 247.581 264.398 243.696 265.411 237.44C266.393 231.376 264.111 226.563 260.165 225.924C259.684 225.846 259.283 225.88 258.883 225.914L258.608 218.462C259.425 218.298 260.403 218.357 261.558 218.544C269.45 219.821 274.074 228.471 272.344 239.154C270.676 249.453 262.996 256.013 254.141 254.58L231.427 250.904C229.502 250.593 227.84 251.706 227.528 253.631C227.107 256.23 230.179 258.604 234.703 259.336L232.103 265.631C224.596 264.416 219.84 258.412 220.915 251.771ZM231.531 228.303C230.612 233.982 232.545 239.727 236.62 243.843L245.09 245.214C245.361 238.047 245.321 232.806 244.969 229.49C244.485 225.165 242.083 222.307 239.003 221.808C235.25 221.201 232.264 223.78 231.531 228.303Z" fill="black"/>
<path d="M311.319 183.028L317.513 187.787C312.162 195.644 302.822 199.161 293.235 196.911C280.231 193.859 272.846 181.811 276.123 167.858C279.379 154 291.379 146.401 304.383 149.453C315.204 151.993 322.282 160.664 322.319 171.589L314.76 172.218C314.818 164.721 310.026 158.689 302.717 156.974C293.889 154.902 285.734 160.199 283.527 169.595C281.32 178.992 286.264 187.363 295.092 189.435C301.451 190.928 307.637 188.473 311.319 183.028Z" fill="black"/>
<path d="M302.754 289.065C292.064 281.899 290.23 270.458 300.443 255.236C311.85 238.234 321.062 232.554 329.986 233.253C333.691 233.506 337.797 235.085 342.252 238.071C346.463 240.894 350.489 242.419 354.41 242.7L350.173 249.015C346.144 248.545 342.092 246.885 338.123 244.225C334.317 241.673 331.264 240.448 329.019 240.469C324.232 240.43 319.491 243.121 314.796 248.542C320.725 246.53 326.052 247.166 330.992 250.478C340.387 256.775 342.407 269.164 334.205 281.389C325.948 293.696 313.688 296.394 302.754 289.065ZM305.023 261.359C299.32 269.86 300.025 278.784 306.909 283.399C313.307 287.687 322.023 285.196 327.564 276.938C333.159 268.598 332.021 259.619 325.542 255.276C319.144 250.987 310.456 253.262 305.023 261.359Z" fill="black"/>
</svg>
